<?xml version="1.0" encoding="UTF-8"?>
<svg id="Camada_2" data-name="Camada 2" xmlns="http://www.w3.org/2000/svg" viewBox="0 0 766.88 295.08">
  <defs>
    <style>
      .cls-1 {
        fill: #666;
      }

      .cls-2 {
        fill: #d3d3d3;
      }
    </style>
  </defs>
  <g id="Camada_1-2" data-name="Camada 1">
    <g>
      <path class="cls-1" d="M209.8,282.71c-2.2-36.33-22.86-68.36-54.21-85.72,32.41-17.9,54.41-52.42,54.41-91.99C210,47.1,162.9,0,105,0S0,47.1,0,105v184h26c3.43-104.55,154.67-104.24,158,0h26c0-2.1-.07-4.2-.2-6.29ZM26,219.91v-114.91c0-43.56,35.44-79,79-79s79,35.44,79,79-35.44,79-79,79c-31.46,0-59.74,13.91-79,35.91Z"/>
      <g>
        <path class="cls-2" d="M521.51,292c0-13.04-10.16-23.84-23.17-24.59-14.95-.86-34.59-5.35-51.62-20.39-19.56-17.27-25.02-39.01-26.61-47.02h68.41v-26h-68.41c6.22-37.39,38.78-66,77.91-66h-.02,8.5c14.36,0,26-11.64,26-26h-198.35c-57.94,0-105.82,46.45-106.15,104.39-.33,58.18,46.9,105.61,105,105.61h188.51Z"/>
        <path class="cls-1" d="M332.99,108h8.5c14.36,0,26-11.64,26-26h-33.34c-57.94,0-105.82,46.45-106.15,104.39-.33,58.18,46.9,105.61,105,105.61h23.5c0-13.04-10.16-23.84-23.17-24.59-14.95-.86-34.59-5.35-51.62-20.39-19.56-17.27-25.02-39.01-26.61-47.02h68.41v-26h-68.41c6.22-37.39,38.78-66,77.91-66h-.02Z"/>
        <path class="cls-1" d="M498,108h8.5c14.36,0,26-11.64,26-26h-33.34c-57.94,0-105.82,46.45-106.15,104.39-.33,58.18,46.9,105.61,105,105.61h23.5c0-13.04-10.16-23.84-23.17-24.59-14.95-.86-34.59-5.35-51.62-20.39-19.56-17.27-25.02-39.01-26.61-47.02h68.41v-26h-68.41c6.22-37.39,38.78-66,77.91-66h-.02Z"/>
      </g>
      <rect class="cls-1" x="557.85" y="9.08" width="26" height="286"/>
      <path class="cls-1" d="M759.94,75.73c-6.35-3.35-14.21-.92-17.56,5.44l-36.35,68.94-66.74-71.73c-4.89-5.26-13.12-5.55-18.37-.66-5.26,4.89-5.55,13.12-.66,18.37l72.93,78.39-52.71,99.97c-3.35,6.35-.92,14.21,5.44,17.56,1.93,1.02,4.01,1.5,6.05,1.5,4.67,0,9.18-2.52,11.51-6.94l101.91-193.27c3.35-6.35.91-14.21-5.44-17.56Z"/>
    </g>
  </g>
</svg>