<?xml version="1.0" encoding="UTF-8"?>
<svg id="Camada_2" data-name="Camada 2" xmlns="http://www.w3.org/2000/svg" viewBox="0 0 357.73 492.3">
  <defs>
    <style>
      .cls-1 {
        fill: #666;
      }
    </style>
  </defs>
  <g id="Camada_1-2" data-name="Camada 1">
    <path class="cls-1" d="M357.39,481.59c-3.74-61.89-38.94-116.45-92.34-146.03,55.21-30.48,92.68-89.3,92.68-156.7C357.73,80.24,277.49,0,178.86,0S0,80.24,0,178.86v313.44h44.29c5.84-178.1,263.47-177.57,269.15,0h44.29c0-3.58-.11-7.15-.34-10.71ZM44.29,374.6v-195.74c0-74.2,60.37-134.57,134.57-134.57s134.57,60.37,134.57,134.57-60.37,134.57-134.57,134.57c-53.6,0-101.76,23.69-134.57,61.16Z"/>
  </g>
</svg>