<?xml version="1.0" encoding="UTF-8"?>
<svg id="Camada_2" data-name="Camada 2" xmlns="http://www.w3.org/2000/svg" xmlns:xlink="http://www.w3.org/1999/xlink" viewBox="0 0 433.07 427.99">
  <defs>
    <style>
      .cls-1 {
        fill: url(#Gradiente_sem_nome_369-2);
      }

      .cls-2 {
        fill: #dd6a57;
      }

      .cls-3 {
        fill: url(#Gradiente_sem_nome_369-4);
      }

      .cls-4 {
        fill: url(#Gradiente_sem_nome_369-17);
      }

      .cls-5 {
        fill: #ad6359;
      }

      .cls-6 {
        fill: #f7a9a0;
      }

      .cls-7, .cls-8 {
        fill: #263238;
      }

      .cls-9 {
        fill: url(#Gradiente_sem_nome_369-14);
      }

      .cls-10 {
        fill: #ff9abb;
      }

      .cls-11 {
        fill: #d3766a;
      }

      .cls-12 {
        fill: #37474f;
      }

      .cls-13, .cls-14, .cls-15 {
        fill: #fff;
      }

      .cls-16 {
        fill: url(#Gradiente_sem_nome_369-7);
      }

      .cls-17 {
        fill: url(#Gradiente_sem_nome_369-15);
      }

      .cls-18 {
        fill: url(#Gradiente_sem_nome_369-13);
      }

      .cls-19 {
        fill: url(#Gradiente_sem_nome_369-10);
      }

      .cls-8, .cls-20 {
        opacity: .2;
      }

      .cls-21 {
        fill: #ffc727;
      }

      .cls-22 {
        fill: #455a64;
      }

      .cls-23 {
        fill: url(#Gradiente_sem_nome_369-16);
      }

      .cls-24 {
        fill: url(#Gradiente_sem_nome_369-3);
      }

      .cls-14, .cls-25, .cls-26 {
        stroke-miterlimit: 10;
      }

      .cls-14, .cls-26 {
        stroke: #ffc727;
      }

      .cls-27 {
        fill: url(#Gradiente_sem_nome_369-20);
      }

      .cls-28 {
        fill: url(#Gradiente_sem_nome_369-9);
      }

      .cls-29 {
        fill: url(#Gradiente_sem_nome_369-8);
      }

      .cls-30 {
        fill: #c7c7c7;
      }

      .cls-31 {
        fill: url(#Gradiente_sem_nome_369-18);
      }

      .cls-32 {
        fill: #ff9cbd;
      }

      .cls-15 {
        opacity: .3;
      }

      .cls-33 {
        fill: url(#Gradiente_sem_nome_369);
      }

      .cls-34 {
        fill: #eb9481;
      }

      .cls-35 {
        fill: url(#Gradiente_sem_nome_369-22);
      }

      .cls-36 {
        fill: #ff98b9;
      }

      .cls-25 {
        stroke: #ebebeb;
      }

      .cls-25, .cls-26 {
        fill: none;
        stroke-width: 2px;
      }

      .cls-37 {
        fill: #dbdbdb;
      }

      .cls-38 {
        fill: #ebebeb;
      }

      .cls-39 {
        fill: #a6a6a6;
      }

      .cls-40 {
        fill: url(#Gradiente_sem_nome_369-23);
      }

      .cls-41 {
        opacity: .1;
      }

      .cls-42 {
        fill: url(#Gradiente_sem_nome_369-6);
      }

      .cls-43 {
        fill: url(#Gradiente_sem_nome_369-11);
      }

      .cls-44 {
        fill: url(#Gradiente_sem_nome_369-19);
      }

      .cls-45 {
        fill: url(#Gradiente_sem_nome_369-12);
      }

      .cls-46 {
        fill: url(#Gradiente_sem_nome_369-21);
      }

      .cls-47 {
        fill: url(#Gradiente_sem_nome_369-5);
      }
    </style>
    <linearGradient id="Gradiente_sem_nome_369" data-name="Gradiente sem nome 369" x1="302.89" y1="344.12" x2="353.7" y2="344.12" gradientUnits="userSpaceOnUse">
      <stop offset="0" stop-color="#3e007f"/>
      <stop offset="1" stop-color="#7700b9"/>
    </linearGradient>
    <linearGradient id="Gradiente_sem_nome_369-2" data-name="Gradiente sem nome 369" x1="322.61" y1="352.37" x2="393.06" y2="352.37" xlink:href="#Gradiente_sem_nome_369"/>
    <linearGradient id="Gradiente_sem_nome_369-3" data-name="Gradiente sem nome 369" x1="362.28" y1="342.62" x2="413.79" y2="342.62" xlink:href="#Gradiente_sem_nome_369"/>
    <linearGradient id="Gradiente_sem_nome_369-4" data-name="Gradiente sem nome 369" x1="110.33" y1="353.77" x2="145.59" y2="353.77" xlink:href="#Gradiente_sem_nome_369"/>
    <linearGradient id="Gradiente_sem_nome_369-5" data-name="Gradiente sem nome 369" x1="64.16" y1="368.79" x2="141.72" y2="368.79" xlink:href="#Gradiente_sem_nome_369"/>
    <linearGradient id="Gradiente_sem_nome_369-6" data-name="Gradiente sem nome 369" x1="61.3" y1="347.32" x2="107.14" y2="347.32" xlink:href="#Gradiente_sem_nome_369"/>
    <linearGradient id="Gradiente_sem_nome_369-7" data-name="Gradiente sem nome 369" x1="218.77" y1="228.94" x2="302.03" y2="228.94" xlink:href="#Gradiente_sem_nome_369"/>
    <linearGradient id="Gradiente_sem_nome_369-8" data-name="Gradiente sem nome 369" x1="175.46" y1="239.04" x2="253.1" y2="239.04" xlink:href="#Gradiente_sem_nome_369"/>
    <linearGradient id="Gradiente_sem_nome_369-9" data-name="Gradiente sem nome 369" x1="176.36" y1="250.45" x2="235.13" y2="250.45" xlink:href="#Gradiente_sem_nome_369"/>
    <linearGradient id="Gradiente_sem_nome_369-10" data-name="Gradiente sem nome 369" x1="191.4" y1="200.47" x2="237.02" y2="200.47" xlink:href="#Gradiente_sem_nome_369"/>
    <linearGradient id="Gradiente_sem_nome_369-11" data-name="Gradiente sem nome 369" x1="199.8" y1="204.41" x2="223.61" y2="204.41" xlink:href="#Gradiente_sem_nome_369"/>
    <linearGradient id="Gradiente_sem_nome_369-12" data-name="Gradiente sem nome 369" x1="217.27" y1="219.08" x2="222.52" y2="219.08" xlink:href="#Gradiente_sem_nome_369"/>
    <linearGradient id="Gradiente_sem_nome_369-13" data-name="Gradiente sem nome 369" x1="228.26" y1="217.19" x2="231.74" y2="217.19" xlink:href="#Gradiente_sem_nome_369"/>
    <linearGradient id="Gradiente_sem_nome_369-14" data-name="Gradiente sem nome 369" x1="197.85" y1="154.99" x2="221.91" y2="154.99" xlink:href="#Gradiente_sem_nome_369"/>
    <linearGradient id="Gradiente_sem_nome_369-15" data-name="Gradiente sem nome 369" x1="200.73" y1="159.03" x2="231.73" y2="159.03" xlink:href="#Gradiente_sem_nome_369"/>
    <linearGradient id="Gradiente_sem_nome_369-16" data-name="Gradiente sem nome 369" x1="321.66" y1="70.79" x2="356.58" y2="70.79" xlink:href="#Gradiente_sem_nome_369"/>
    <linearGradient id="Gradiente_sem_nome_369-17" data-name="Gradiente sem nome 369" x1="323.71" y1="91.73" x2="395.05" y2="91.73" xlink:href="#Gradiente_sem_nome_369"/>
    <linearGradient id="Gradiente_sem_nome_369-18" data-name="Gradiente sem nome 369" x1="341.65" y1="76.23" x2="370.27" y2="76.23" xlink:href="#Gradiente_sem_nome_369"/>
    <linearGradient id="Gradiente_sem_nome_369-19" data-name="Gradiente sem nome 369" x1="12.08" y1="158.88" x2="65.65" y2="158.88" xlink:href="#Gradiente_sem_nome_369"/>
    <linearGradient id="Gradiente_sem_nome_369-20" data-name="Gradiente sem nome 369" x1="37.47" y1="160.93" x2="110.35" y2="160.93" xlink:href="#Gradiente_sem_nome_369"/>
    <linearGradient id="Gradiente_sem_nome_369-21" data-name="Gradiente sem nome 369" x1="12.75" y1="193.13" x2="70.54" y2="193.13" xlink:href="#Gradiente_sem_nome_369"/>
    <linearGradient id="Gradiente_sem_nome_369-22" data-name="Gradiente sem nome 369" x1="75.92" y1="154.77" x2="134.73" y2="154.77" xlink:href="#Gradiente_sem_nome_369"/>
    <linearGradient id="Gradiente_sem_nome_369-23" data-name="Gradiente sem nome 369" x1="110.62" y1="168.96" x2="155.48" y2="168.96" xlink:href="#Gradiente_sem_nome_369"/>
  </defs>
  <g id="Background_Complete" data-name="Background Complete">
    <g>
      <circle class="cls-38" cx="335.85" cy="400.53" r="24.5" transform="translate(-121.47 147.4) rotate(-21.06)"/>
      <circle class="cls-38" cx="93.93" cy="41.39" r="24.5"/>
      <circle class="cls-38" cx="10.45" cy="214.55" r="10.45" transform="translate(-202.99 190.38) rotate(-80.75)"/>
      <circle class="cls-38" cx="422.62" cy="216.06" r="10.45"/>
      <line class="cls-25" x1="16.25" y1="216.06" x2="168.18" y2="218.73"/>
      <line class="cls-25" x1="335.85" y1="400.53" x2="220.85" y2="222.79"/>
      <line class="cls-25" x1="93.93" y1="41.39" x2="168.8" y2="190.24"/>
      <line class="cls-25" x1="232.15" y1="216.06" x2="422.62" y2="216.06"/>
      <g id="u5Zjqx">
        <g>
          <path class="cls-38" d="M426.8,157.02c-1.18,1.17-2.37,2.35-3.55,3.52-.67.67-1.34,1.35-2.01,2.02-9.53-9.25-20.88-14.18-34.16-14.19-13.28,0-24.63,4.92-34.23,14.22-.63-.66-1.27-1.34-1.92-2-1.16-1.18-2.33-2.35-3.5-3.52-.03-.03-.07-.04-.11-.06v-.09c.09-.07.18-.14.26-.21,1.49-1.33,2.95-2.7,4.49-3.97,3.18-2.63,6.67-4.79,10.37-6.61,4.38-2.15,8.95-3.74,13.75-4.62,2.27-.42,4.58-.63,6.87-.91.78-.1,5.86-.11,6.01-.1,1.56.12,3.13.19,4.68.35,4.33.47,8.53,1.52,12.61,3.01,2.96,1.08,5.8,2.42,8.53,3.99,2.89,1.66,5.61,3.54,8.14,5.7,1.28,1.09,2.5,2.24,3.75,3.37v.09Z"/>
          <path class="cls-38" d="M364.11,173.71c-1.88-1.86-3.71-3.68-5.61-5.56,6.39-6.27,13.93-10.25,22.81-11.45,13.26-1.8,24.65,2.23,34.3,11.37-1.91,1.9-3.75,3.74-5.63,5.6-6.34-6.16-13.98-9.48-22.93-9.48-8.93,0-16.56,3.33-22.94,9.52Z"/>
          <path class="cls-38" d="M404.39,179.3c-1.85,1.85-3.7,3.7-5.58,5.57-3.23-3.14-7.15-4.87-11.75-4.87-4.59,0-8.5,1.73-11.75,4.9-1.87-1.87-3.72-3.72-5.57-5.57,8.87-9.29,24.83-10.04,34.65-.04Z"/>
        </g>
        <path class="cls-38" d="M392.1,189.94c0,2.78-2.25,5.04-5.04,5.04s-5.03-2.26-5.03-5.04,2.25-5.04,5.03-5.04,5.04,2.26,5.04,5.04Z"/>
      </g>
      <path class="cls-38" d="M9.51,277.48c0,4.67,3.61,8.5,8.2,8.83v.02h50.18c5.75,0,10.41-4.66,10.41-10.41,0-5.42-4.14-9.88-9.44-10.37-.3-9.42-8.03-16.98-17.53-16.98-7.56,0-14.01,4.78-16.47,11.49-1.4-.71-2.98-1.1-4.66-1.1-5.54,0-10.06,4.32-10.39,9.77-.47-.08-.95-.12-1.44-.12-4.89,0-8.86,3.97-8.86,8.86Z"/>
      <g>
        <circle class="cls-38" cx="210.43" cy="20.39" r="6.97"/>
        <path class="cls-38" d="M192.23,35.85c0,3.85-3.12,6.97-6.97,6.97s-6.97-3.12-6.97-6.97,3.12-6.97,6.97-6.97,6.97,3.12,6.97,6.97Z"/>
        <path class="cls-38" d="M217.39,51.31c0,3.85-3.12,6.97-6.97,6.97s-6.97-3.12-6.97-6.97,3.12-6.97,6.97-6.97,6.97,3.12,6.97,6.97Z"/>
        <polyline class="cls-25" points="210.43 20.39 185.26 35.85 210.43 52.09"/>
      </g>
      <path class="cls-38" d="M256.14,377.93c-12.05,0-21.82,7.22-21.82,16.11,0,2.52.78,4.9,2.17,7.03l-2.92,6.55,7.52-1.92c3.92,2.77,9.21,4.46,15.05,4.46,12.05,0,21.81-7.22,21.81-16.12s-9.76-16.11-21.81-16.11ZM246.02,396.3c-1.25,0-2.26-1.02-2.26-2.26s1.02-2.26,2.26-2.26,2.26,1.02,2.26,2.26-1.01,2.26-2.26,2.26ZM256.14,396.3c-1.26,0-2.26-1.02-2.26-2.26s1.01-2.26,2.26-2.26,2.26,1.02,2.26,2.26-1.02,2.26-2.26,2.26ZM266.25,396.3c-1.25,0-2.26-1.02-2.26-2.26s1.02-2.26,2.26-2.26,2.26,1.02,2.26,2.26-1.02,2.26-2.26,2.26Z"/>
    </g>
  </g>
  <g id="World">
    <g>
      <path class="cls-22" d="M376.5,219.23c0,35.14-11.33,67.64-30.55,94.04,0,0,0,.01-.01.02-29.08,39.94-76.21,65.9-129.4,65.9-88.35,0-159.97-71.62-159.97-159.97,0-52.9,25.68-99.8,65.25-128.92,26.51-19.51,59.27-31.04,94.72-31.04,4.39,0,8.74.17,13.03.52,25.49,2.06,49.28,10.08,69.99,22.68,16.42,9.99,30.89,22.84,42.72,37.88,3.58,4.54,6.91,9.28,9.98,14.19,15.36,24.56,24.23,53.59,24.23,84.69Z"/>
      <g class="cls-20">
        <path d="M251.08,294.73c-2.02,5.38,1.34,5.6,1.57,7.84.22,2.24,0,6.5-6.5,12.99-6.5,6.5-17.25,5.15-19.49,7.84-2.24,2.69-6.05,14.11-11.43,17.92-5.38,3.81-6.27,1.57-13.89,3.14-7.62,1.57-13.44,11.43-15.68,16.13-2.24,4.7.45,12.55-4.93,12.77-5.38.22-7.84-11.43-12.77-17.7-4.93-6.27-6.5-11.87-8.07-19.27-1.57-7.39.9-22.85,0-28.9-.9-6.05-17.03-16.8-22.85-24.2-5.82-7.39-13.89-22.18-13.44-27.11.45-4.93,4.03-10.31,6.72-12.32s1.57-3.14,2.02-4.93c.45-1.79,2.69-2.24,3.14-4.48.45-2.24-1.34-8.96-3.58-10.08-2.24-1.12-3.81,2.69-5.15,2.02-1.34-.67-5.38-5.38-6.95-5.83-1.57-.45-1.12,2.91-3.36-1.34-2.24-4.26-3.36-15.01-5.15-16.8-1.79-1.79-3.14,3.14-7.39,0-4.26-3.14-6.05-9.19-7.84-10.08-1.79-.9-4.26.22-6.1-3.36-1.85-3.58,1.62-10.08,0-9.41-1.62.67-5.1,5.83-6,.9-.9-4.93,4.48-21.51,3.58-30.47-.9-8.96,2.24-18.37,8.51-25.99,0,0,.9-4.93,1.79-8.07.9-3.14,20.16-15.68,22.4-19.27.93-1.5,1.25-3.84,1.58-6.37,26.51-19.51,59.27-31.04,94.72-31.04,4.39,0,8.74.17,13.03.52.15.21.3.4.45.6,1.94,2.46,4.03,4.03,9.71,6.13,5.67,2.09,7.02,4.78,5.83,7.02-1.2,2.24-3.14,2.69-5.38,2.84-2.24.15-4.33-1.05-6.72.45-2.39,1.49-4.78,9.56-7.92,10.01-3.14.45-8.66-7.17-9.86-9.41-1.2-2.24,2.69-7.02.86-9.26-1.83-2.24-5.04-1.79-10.12-2.24-5.08-.45-16.87,1.5-16.43,3.44.45,1.94,17.32-.3,17.77,3.58.45,3.88-12.39,10.45-14.63,9.86-2.24-.6-5.23-4.48-8.51-4.93-3.29-.45-5.98,2.24-8.04,2.54-2.07.3-4.5-2.24-7.64-1.64-3.14.6-3.88,3.28-5.53,4.33-1.64,1.04-5.52,1.04-5.97,3.43-.45,2.39,4.93,3.74,6.27,5.23,1.34,1.49-1.64,6.57-.3,7.62,1.34,1.04,9.71-6.27,11.8-8.07,2.09-1.79,3.88-9.56,8.36-9.41,4.48.15,5.98,7.77,7.47,8.51,1.49.75,4.78-1.79,9.71-.75,4.93,1.05,8.36,11.8,9.26,15.09.9,3.28,2.99,6.57,1.2,7.92-1.79,1.34-9.86-.9-10.9-2.99-1.05-2.09,5.38-5.23,4.93-5.97-.45-.75-4.18-1.79-6.13-.62-1.94,1.17-2.84,3.61-4.93,4.21-2.09.6-7.62-5.68-9.11-3.88-1.5,1.79,1.49,7.47,2.98,8.81,1.5,1.34,7.02,2.09,7.47,3.58.45,1.49-3.73,4.78-8.81,4.48-5.08-.3-9.26-4.19-11.2-2.54-1.94,1.64-.9,5.97-2.24,7.47-1.34,1.49-8.66.45-12.25,4.33-3.58,3.88-5.23,9.71-8.81,12.99-3.58,3.29-5.22-.9-10.01,3.74-4.78,4.63-5.53,14.93-5.68,18.52-.15,3.58,0,6.42-1.19,5.97-1.2-.45-2.84-3.58-3.29-5.52-.45-1.94,1.05-5.23,1.05-6.42s-6.87-7.32-10.91-7.92c-4.03-.6-7.62,2.69-10.6,5.08-2.99,2.39-8.37,1.94-10.31,3.88-1.94,1.94-3.44,19.12-1.94,23.15,1.5,4.03,3.44,4.03,8.22,1.94,4.78-2.09,2.09-6.13,4.93-5.23,2.84.9,4.33,3.88,4.33,6.27s-5.67,8.07-4.93,9.71c.75,1.64,5.68-.3,8.07.45,2.39.75,3.58,2.24,2.84,8.37-.75,6.12-.3,10.9,3.28,12.92,3.58,2.02,5.6-2.91,7.17-2.24,1.57.67,3.81,4.26,6.05,4.03,2.24-.22,1.12-2.24,5.38-3.58,4.26-1.34,2.69-2.24,3.58-4.93.9-2.69,3.58-4.93,6.5-3.58,2.91,1.34.9,3.36,1.12,5.6.22,2.24,5.38,2.46,9.41,3.81s6.27,0,14.34,2.69c8.07,2.69,8.51,10.75,11.87,12.1s14.56-.9,22.63,4.93c8.07,5.83,5.83,16.58,9.86,19.72,4.03,3.14,19.04,7.39,24.87,8.51,5.83,1.12,6.72-2.91,11.43-1.79,4.7,1.12,7.39,2.46,8.96,8.96,1.38,5.72-16.13,17.7-18.15,23.08Z"/>
        <path d="M130.69,180.17c.15,1.27,3.88,1.79,8.36,4.33,4.48,2.54,6.12,10.01,8.51,9.86,2.39-.15,1.64-3.58,2.54-4.48s2.39-2.84,0-4.78c-2.39-1.94-4.72-6.12-9.08-6.72-4.36-.6-5.11-2.39-7.05-2.24-1.94.15-3.58,1.49-3.29,4.03Z"/>
        <path d="M155.34,192.71c-.67,1.83,0,3.14,4.78,4.33,4.78,1.2,9.26-1.19,7.77-2.17-1.49-.97-3.73-.52-2.84-2.17.9-1.64.59-4.03-3.29-3.58-3.88.45-5.82,1.94-6.42,3.58Z"/>
        <path d="M172.07,193.22c-1.63.24-2.54,3.08-.9,4.87,1.64,1.79,1.64,1.49,3.58,0,1.94-1.49,4.93-2.24,4.18-3.73-.75-1.5-5.23-1.37-6.87-1.14Z"/>
        <path d="M185.06,199.33c.73-2.24,4.48-.04,6.12,2.35,1.64,2.39.9,5.83,0,8.36-.9,2.54-1.49,5.53-3.58,4.33-2.09-1.2.15-4.78-.15-6.87-.3-2.09-2.99-6.34-2.39-8.18Z"/>
        <path d="M249.43,74.72c-.78,1.88,2.84,2.54,4.93,3.73,2.09,1.19,3.73,1.94,4.93,0,1.19-1.94-.45-4.18-2.09-4.63-1.64-.45-7.02-.9-7.77.9Z"/>
        <path d="M277.66,92.2c1.38,1.45,3.73,1.19,5.38,3.29,1.64,2.09,1.05,5.68,3.14,6.72,2.09,1.05,3.58,0,3.73-1.49.15-1.49-2.99-5.23-2.69-5.97.3-.75,4.33,1.05,5.23,3.29.9,2.24-.9,5.38,1.19,5.97,2.09.6,1.64-2.09,2.54-2.69.9-.6,2.84-.3,2.69-2.09-.15-1.79-2.54-5.68-4.48-7.02-1.94-1.34-3.44-2.84-6.72-3.58-3.29-.75-6.42-.15-8.07,1.19-1.64,1.34-2.79,1.49-1.94,2.39Z"/>
        <path d="M342.28,120.34c-.18.74-.45,1.29-.84,1.57-3.14,2.24-6.87-5.52-11.2-7.02-4.33-1.5-6.27-7.02-7.17-5.82-.9,1.19-.6,2.84-1.94,4.78-1.34,1.94-3.28,1.5-4.18,5.23-.9,3.73,4.18,10.61,2.99,12.85-1.2,2.24-2.69,1.49-5.08,1.34-2.39-.15-1.94,1.94-5.07,1.04-3.14-.9-.45-4.78-5.38-9.41-4.93-4.63-6.57-5.52-5.52-7.62,1.06-2.09-.45-5.08,1.79-5.38,2.24-.3,4.03,2.99,5.52,3.88,1.49.9,3.44-1.79,3.58-4.19.15-2.39-5.23-5.67-7.17-7.53-1.94-1.86-2.09-8.6-1.34-9.95.75-1.34,2.99-.9,3.58-4.18.35-1.93-2.71-5.16-5.29-7.49,16.42,9.99,30.89,22.84,42.72,37.88Z"/>
        <path d="M364.59,254.25c.45-4.78-1.94-5.08.45-13.89,2.39-8.81-2.54-18.22-4.33-20.16-1.79-1.94-5.68-1.34-8.81.6-3.14,1.94-.9,3.44-2.99,4.18-2.09.75-4.18-.45-6.12-.3-1.94.15-3.74,5.08-7.92,4.93-4.18-.15-6.87-6.13-10.01-10.38-3.14-4.26-9.56-6.95-11.65-12.17-2.09-5.22,1.94-13.29,1.04-19.42-.9-6.13-4.93-4.78-5.68-8.21-.74-3.44.6-1.79,1.64-5.08,1.04-3.28-1.2-5.08.9-10.75,2.09-5.67,5.82-8.51,4.93-11.05-.9-2.54-3.73-6.72-3.88-9.7-.15-2.98,2.84-2.85,8.51-7.03,5.68-4.18,7.17-3.88,11.5-2.39,4.33,1.49,7.02,2.24,9.56,2.69,2.54.45,5.98,7.02,7.02,6.72,1.04-.3,1.2-2.24,1.64-5.08.19-1.2.99-2.33,1.86-3.22,15.36,24.56,24.23,53.59,24.23,84.69,0,35.14-11.33,67.64-30.55,94.04,15.23-23.26,18.19-54.24,18.64-59.01Z"/>
      </g>
      <path class="cls-41" d="M340.46,320.38c-29.33,35.89-73.96,58.82-123.93,58.82-88.35,0-159.97-71.61-159.97-159.97,0-52.9,25.68-99.8,65.25-128.92,26.52-19.51,59.27-31.04,94.71-31.04,4.39,0,8.73.18,13.04.52,1.19.09,2.38.2,3.56.33-26.38,2.83-50.65,12.66-70.93,27.58-36.26,26.69-59.79,69.66-59.79,118.13,0,80.96,65.62,146.58,146.58,146.58,34.6,0,66.39-11.99,91.47-32.04Z"/>
      <path class="cls-15" d="M376.5,219.23c0,35.15-11.33,67.64-30.55,94.04,0,0,0,.02,0,.03-14.94,20.51-34.63,37.33-57.46,48.84,19.86-11.35,37.05-26.79,50.45-45.2,0,0,0-.02.02-.03,19.33-26.54,30.73-59.23,30.73-94.58,0-31.28-8.93-60.48-24.38-85.18-3.09-4.95-6.45-9.71-10.04-14.28-11.9-15.12-26.46-28.05-42.97-38.09-20.83-12.68-44.76-20.75-70.4-22.81-4.32-.35-8.7-.53-13.1-.53-13.32,0-26.25,1.62-38.63,4.67,14.68-4.45,30.24-6.84,46.38-6.84,4.39,0,8.73.18,13.04.52,25.48,2.06,49.28,10.08,69.98,22.68,16.41,9.99,30.9,22.84,42.73,37.88,3.58,4.54,6.91,9.27,9.98,14.19,15.36,24.56,24.24,53.59,24.24,84.69Z"/>
    </g>
  </g>
  <g id="Character_5" data-name="Character 5">
    <g>
      <g>
        <circle class="cls-14" cx="358" cy="332.11" r="58.98"/>
        <circle class="cls-26" cx="358" cy="332.11" r="66.62"/>
      </g>
      <g>
        <g>
          <g>
            <path class="cls-7" d="M367.85,281.12c.58.23,1.13.56,1.59,1,2.07,1.98,2.35,5.03,2.07,7.71-.31,2.87-1.3,5.87-.63,8.74.26,1.13.8,2.22,1.75,2.9,1.08.77,2.4.71,3.63.43,1.3-.29,2.77-.93,4.08-.35,1.09.47,1.7,1.65,1.93,2.76.59,2.9-1.37,5.65-1.92,8.41-.6,2.95-.28,6.04.89,8.81,1.1,2.59,3,4.81,5.33,6.36,1.14.76,2.4,1.38,3.7,1.78,1.47.45,3,.57,4.49.95,1.38.36,2.86,1.03,3.54,2.36.53,1.02.21,5.26-3.25,9.15-.25.28.27.71.62.51.68-.36,1.34-.76,1.97-1.19,5.26-3.63,8.55-9.68,8.64-16.08.05-3.42-.78-6.78-2.34-9.82-.87-1.68-1.88-3.31-2.46-5.12-.51-1.62-.52-3.28-.24-4.94.54-3.16,1.83-6.15,1.82-9.39-.02-2.9-.84-5.75-2.23-8.29-2.92-5.3-8.1-8.94-13.99-10.18-5.8-1.22-19.33,3.34-19.01,3.47Z"/>
            <path class="cls-7" d="M368.03,281.19c1.09.58,2.15,1.29,2.88,2.3.66.92,1.02,2.01,1.16,3.13.31,2.51-.42,4.91-1.06,7.3-.61,2.25-1.13,4.66-.31,6.92.35.96.92,1.89,1.74,2.51.93.71,2.05.88,3.19.75,2.07-.24,4.61-1.21,6.38.45,1.7,1.6,1.11,4.37.69,6.38-1.01,4.89-3.05,11.08.75,15.34,1.92,2.16,4.81,3.58,7.48,4.55,1.93.7,4.38,1.57,5.13,3.69.03.08-.1.1-.13.03-.82-2.23-3.43-2.67-5.43-3.31-2.35-.74-4.7-1.86-6.6-3.44-1.96-1.63-3.04-3.88-3.34-6.4-.3-2.56.16-5.09.73-7.58.29-1.28.62-2.54.87-3.83.23-1.16.42-2.39.13-3.55-.31-1.24-1.28-1.99-2.53-2.13-1.23-.13-2.42.22-3.63.39-1.08.15-2.18.16-3.18-.3-.81-.37-1.48-.97-2-1.69-1.18-1.64-1.52-3.71-1.29-5.69.33-2.81,1.59-5.42,1.87-8.23.14-1.44.06-2.96-.57-4.28-.66-1.39-1.87-2.2-3.1-3.05-.17-.11,0-.35.17-.26Z"/>
            <path class="cls-7" d="M389.17,276.36c5.95,1.14,10.62,5.87,12.49,11.51,1.05,3.16,1.21,6.52.71,9.8-.47,3.06-1.37,6.12-1.17,9.25.22,3.46,2.3,6.18,3.91,9.1,1.31,2.37,2.08,4.97,2.28,7.67.38,5.18-1.37,10.5-4.79,14.4-.44.5-.89.98-1.38,1.43-.06.06-.15-.04-.09-.09,3.78-3.61,5.7-8.9,5.62-14.08-.04-2.55-.57-5.09-1.63-7.42-1.3-2.87-3.44-5.33-4.36-8.38-.86-2.86-.36-5.89.21-8.75.62-3.13,1.21-6.22.76-9.42-.84-5.94-4.65-11.36-10.31-13.59-6.32-2.48-13.11-.54-19.08,1.98-.8.34-1.59.68-2.39,1.02-.09.04-.16-.09-.07-.14,5.94-2.86,12.57-5.59,19.3-4.3Z"/>
          </g>
          <path class="cls-21" d="M366.53,277.81c.89-.51,2.4-.47,2.87.03.47.5.91,5.83,0,6.79-.92.96-2.92-.44-2.92-.44l.05-6.38Z"/>
        </g>
        <g>
          <path class="cls-2" d="M341.02,321.74c-25.26,22.77-48.68,47.7-50.52,60.43-2.54,17.62,8.3,22.51,13.16,22.56,13.22.13,37.25-53.45,45.6-73.91,8.11-19.87-2.7-14.08-8.24-9.08Z"/>
          <g>
            <path class="cls-30" d="M302.89,358.18l28.09,15.27s17.47-32.26,21.49-47.21c4.02-14.95-1.99-14.52-15.21-2.89-13.22,11.63-34.37,34.84-34.37,34.84Z"/>
            <path class="cls-33" d="M302.89,358.18l28.09,15.27s17.47-32.26,21.49-47.21c4.02-14.95-1.99-14.52-15.21-2.89-13.22,11.63-34.37,34.84-34.37,34.84Z"/>
            <path class="cls-41" d="M352.46,326.23c-4.02,14.96-21.49,47.22-21.49,47.22l-25.58-13.91,47.1-44.27c1.57,1.2,1.64,4.76-.04,10.96Z"/>
            <path class="cls-7" d="M308.67,353.87c10.83,7.33,21.33,12.09,23.43,13.3.1.06.18-.11.08-.16-2.13-1.08-13.65-8.26-23.42-13.32-.11-.06-.19.11-.08.18Z"/>
          </g>
        </g>
        <g>
          <path class="cls-1" d="M393.06,379.54c-1.26.94-2.56,1.82-3.9,2.65-.66.42-1.33.82-2.01,1.2-2.08,1.19-4.24,2.25-6.47,3.18-1.03.43-2.08.83-3.15,1.2-4.95,1.75-10.21,2.84-15.67,3.19-1.28.09-2.57.13-3.87.13s-2.59-.04-3.87-.13c-5.46-.35-10.72-1.45-15.67-3.19-1.06-.37-2.11-.77-3.14-1.2-2.23-.93-4.39-1.99-6.47-3.18-.68-.38-1.35-.78-2.01-1.2h-.89l.08-.51.42-2.68.19-1.2.5-3.19.1-.66s-.11-.18-.29-.53c-.33-.62-.89-1.74-1.49-3.2-.08-.19-.16-.38-.24-.58-.08-.19-.16-.4-.24-.61-.37-.97-.75-2.04-1.08-3.19-.01-.02-.02-.04-.02-.06-.06-.17-.11-.35-.15-.53-.06-.2-.11-.4-.16-.6h.01c-.27-1.03-.51-2.1-.68-3.2-.06-.39-.11-.79-.15-1.19-.11-1.05-.16-2.12-.12-3.19-.01-.06,0-.13,0-.19v-.05c.01-.25.03-.51.05-.76.01-.06.01-.13.02-.19.1-1.08.3-2.16.62-3.2.05-.18.1-.35.17-.53,0-.04.02-.07.04-.11.06-.18.14-.37.21-.55h0c.08-.21.15-.42.25-.63.27-.6.74-1.47,1.38-2.56.02-.03.03-.06.05-.09.2-.34.42-.71.65-1.11.57-.96,1.23-2.03,1.96-3.19.17-.27.34-.54.52-.81.07-.12.16-.25.24-.38.65-1.02,1.35-2.09,2.08-3.19.26-.39.53-.8.8-1.2.71-1.04,1.44-2.11,2.19-3.19.28-.39.55-.79.83-1.19h.01c.75-1.07,1.52-2.15,2.3-3.2h.01c.07-.1.14-.2.21-.29.21-.3.43-.6.66-.9h.01c.81-1.09,1.62-2.16,2.44-3.19.14-.19.29-.37.43-.55.17-.22.34-.43.51-.64.9-1.12,1.8-2.2,2.67-3.2.22-.25.43-.49.64-.73,1.26-1.4,2.46-2.64,3.58-3.65.48-.45.95-.84,1.4-1.19.16-.14.32-.26.48-.37,5.36-3.88,12.64-2.49,17.86.37h0c.06.03.12.06.18.1.28.15.56.31.82.48l.15.09c.24.15.48.3.71.46.03.02.05.04.08.06h.01c1.47,1.01,2.67,2.11,3.48,3.19h.01s.05.06.07.09c.27.37.54.74.8,1.1.76,1.06,1.5,2.12,2.2,3.2h.01c.27.39.52.79.77,1.19.67,1.04,1.31,2.1,1.93,3.19.16.29.33.58.49.88.06.11.11.21.17.31.56,1.03,1.11,2.1,1.64,3.2.17.34.34.7.49,1.05.01.03.03.05.03.07.02.02.02.04.03.07h0c.47,1.02.93,2.09,1.38,3.19.11.28.22.56.33.85.05.11.09.23.14.35.4,1.02.78,2.08,1.16,3.19h.01c.14.38.27.79.4,1.19.34,1.02.67,2.08,1,3.19.12.39.23.79.35,1.2.3,1.03.59,2.09.87,3.19.09.31.17.62.24.93.03.09.05.17.07.26.26,1.03.52,2.1.77,3.2.1.39.19.79.28,1.19.23,1.03.46,2.09.69,3.19.08.39.16.79.25,1.19.21,1.04.42,2.1.63,3.2.07.39.15.79.23,1.19.19,1.04.38,2.1.57,3.19.07.4.14.79.21,1.19.18,1.04.36,2.11.53,3.2.02.1.03.19.05.29.05.3.09.6.14.9.17,1.04.34,2.1.5,3.19.07.4.13.79.19,1.2.03.18.05.36.08.54Z"/>
          <path class="cls-41" d="M369.77,317.54c-.23-.16-.47-.31-.71-.46l-.15-.09c-.26-.17-.54-.33-.82-.48-.06-.04-.12-.07-.18-.1h-18.35c-.45.35-.92.74-1.4,1.19h21.69s-.05-.04-.08-.06ZM373.42,320.88s-.04-.06-.07-.09h-28.34c-.14.15-.28.3-.43.46-.21.24-.42.48-.64.73h30.28c-.26-.36-.53-.73-.8-1.1ZM376.43,325.18h-35.16c-.17.21-.34.42-.51.64-.15.18-.29.37-.44.55h36.88c-.25-.4-.5-.8-.77-1.19ZM379.62,330.44c-.16-.3-.33-.59-.49-.88h-41.25c-.23.3-.45.6-.66.9-.08.1-.15.19-.22.29h42.8c-.06-.1-.12-.21-.18-.31ZM381.95,335.07s-.02-.04-.03-.07c-.15-.35-.32-.71-.49-1.05h-46.74c-.28.4-.55.8-.83,1.19h48.13s-.02-.05-.04-.07ZM383.7,339.18c-.11-.29-.22-.57-.33-.85h-51.7c-.27.4-.54.81-.8,1.2h52.97c-.05-.12-.09-.24-.14-.35ZM385.01,342.72h-56.22c-.08.13-.17.26-.24.38-.18.27-.35.54-.52.81h57.38c-.13-.4-.26-.81-.4-1.19ZM386.42,347.1h-60.35c-.23.4-.45.77-.65,1.11-.02.03-.03.06-.05.09h61.4c-.12-.41-.24-.81-.35-1.2ZM387.87,352.42c-.07-.31-.15-.63-.23-.93h-63.91c-.07.18-.15.37-.21.55-.02.04-.03.07-.04.11-.07.18-.12.35-.17.53h64.63c-.02-.09-.04-.17-.07-.26ZM388.71,355.88h-66.02c-.01.06-.01.13-.02.19-.02.25-.04.51-.05.76v.05c0,.06-.01.13-.01.19h66.38c-.09-.4-.18-.8-.28-1.19ZM389.68,360.26h-66.94c.04.4.09.8.15,1.19h67.04c-.09-.4-.17-.8-.25-1.19ZM390.56,364.65h-67c.05.2.1.4.16.6.04.18.09.36.15.53,0,.02,0,.04.01.06h66.91c-.08-.4-.16-.8-.23-1.19ZM391.36,369.03h-66.39c.08.21.16.42.24.61.08.2.16.39.24.58h66.12c-.07-.4-.14-.79-.21-1.19ZM392.15,373.71c-.02-.1-.03-.19-.05-.29h-65.16c.18.35.29.53.29.53l-.1.66h65.16c-.05-.3-.09-.6-.14-.9ZM392.79,377.8h-66.16l-.19,1.2h66.54c-.06-.41-.12-.8-.19-1.2ZM326.83,382.19c.66.42,1.33.82,2.01,1.2h58.31c.68-.38,1.35-.78,2.01-1.2h-62.33ZM335.31,386.57c1.03.43,2.08.83,3.14,1.2h39.08c1.07-.37,2.12-.77,3.15-1.2h-45.37ZM354.12,390.96c1.28.09,2.57.13,3.87.13s2.59-.04,3.87-.13h-7.74Z"/>
          <g>
            <path class="cls-7" d="M340.85,370.33c3.56.4,7.14.92,10.61,1.84,1.73.46,3.42.99,5.11,1.57.84.29,1.69.54,2.54.8.88.26,1.82.5,2.73.54.08,0,.08.13,0,.13-.89.02-1.75.03-2.64-.07-.85-.1-1.69-.29-2.51-.5-1.76-.45-3.49-.98-5.24-1.44-3.53-.94-7.06-1.88-10.66-2.57-.17-.03-.12-.31.05-.29Z"/>
            <path class="cls-7" d="M331.97,373.42c2.94-.27,5.93-.41,8.88-.35,1.48.03,2.95.15,4.43.3.7.07,1.41.16,2.11.26.77.11,1.53.31,2.3.41.08,0,.08.14,0,.13-.73-.07-1.48-.01-2.21-.04-.74-.02-1.48-.05-2.21-.08-1.48-.05-2.96-.08-4.43-.14-2.96-.13-5.91-.22-8.87-.25-.16,0-.15-.23,0-.24Z"/>
          </g>
        </g>
        <g>
          <path class="cls-2" d="M375.3,320.12c23.95,18.39,48.93,49.61,49.31,67.63.37,17.8-9.63,16.03-11.31,15.5-17.8-5.54-39.26-54.92-47.19-75.02-7.88-19.96,3.27-12.66,9.2-8.11Z"/>
          <g>
            <path class="cls-24" d="M413.79,355.99l-27.81,15.77s-18.04-31.94-22.33-46.82c-4.29-14.88,1.73-14.55,15.15-3.16,13.42,11.39,34.99,34.22,34.99,34.22Z"/>
            <path class="cls-7" d="M407.93,351.79c-10.7,7.52-21.11,12.47-23.19,13.72-.1.06-.18-.11-.08-.16,2.11-1.12,13.5-8.5,23.18-13.73.11-.06.19.1.09.18Z"/>
            <path class="cls-7" d="M387.76,370.68c-.18.02-1.42.62-1.68.75-2.67-5.32-2.19-4.1-4.91-9.39-1.33-2.59-2.67-5.18-4-7.78-1.38-2.7-2.62-5.51-4.15-8.13-.05-.08-.15-.02-.12.06.89,2.56,2.09,5.03,3.22,7.5-.25-.38-.49-.77-.76-1.14-.61-.83-1.21-1.65-1.76-2.52-.08-.13-.31-.02-.22.11.52.83.98,1.69,1.44,2.56.46.87.96,1.7,1.48,2.54.5.81,1.05,1.57,1.6,2.34.07.09.13.19.2.28.73,1.54,1.44,3.09,2.2,4.62,2.67,5.35,5.43,9.55,5.52,9.52.37-.1,1.87-1.06,2.02-1.17.08-.06,0-.16-.07-.15Z"/>
          </g>
        </g>
        <g>
          <g>
            <path class="cls-2" d="M304.88,404.1c8.24-1.21,12.91-16.53,22.07-40.91,1.61-4.28-19.68-28.78-22.57-24.84-3.64,4.96-13.29,32.5-14.25,39.98-1.9,14.75,5.13,27.18,14.76,25.77Z"/>
            <path class="cls-7" d="M317.56,387.87c.66-2.11,1.4-4.18,2.16-6.25.74-2.07,1.55-4.12,2.35-6.17.82-2.04,1.63-4.09,2.47-6.12.43-1.01.84-2.03,1.24-3.05.43-1.01.83-2.03,1.17-3.09-.3,2.2-1.02,4.31-1.69,6.41-.68,2.1-1.47,4.16-2.26,6.21-.82,2.05-1.65,4.08-2.57,6.09-.9,2.01-1.83,4.01-2.87,5.96Z"/>
          </g>
          <g>
            <path class="cls-2" d="M297.66,356.03c1.15-8.37,3.52-20.05,6.51-22.49,3.14-2.57,14.54-11.15,17.83-12.29,3.29-1.14,17.97-6.73,20.67-5.17,2.16,1.25-.4,6.93-7.38,9.65-6.14,2.39-9.3,4.62-11.05,5.38-1.79.77-6.1,6.57-4.92,9.14.69,1.51,5.09,3.29,7.83,2.05,2.74-1.24,3.41-6.65,6.54-9.21,3.13-2.55,8.64-2.24,8.96-.76.32,1.49-1.5,2.18-4.32,7.24-1.81,3.25-1.93,11.06-6.05,16.66-2.07,2.81-5.67,10.3-5.67,10.3l-28.93-10.51Z"/>
            <path class="cls-7" d="M336.59,330.78c.97-.22,2.02-.51,2.73-1.24.3-.31.54-.69.62-1.12.04-.23.05-.47.02-.7-.03-.21-.09-.53-.27-.67-.05-.04.03-.11.06-.05.06.12.17.22.25.33.07.1.12.21.16.31.08.22.12.45.12.68-.01.51-.22,1-.54,1.39-.78.93-1.98,1.17-3.14,1.13-.05,0-.05-.07,0-.08Z"/>
            <g>
              <path class="cls-2" d="M304.17,333.54c2.66-4.18,9.46-11.71,16.2-14.3,4.56-1.75,20.25,5.88,19.79,8.87-.46,3-3.13,3.01-7.1,2.54-1.45-.17-9.09-2.91-10.39-1.31-1.87,2.31-4.24,10.18-4.24,10.18l-14.25-5.99Z"/>
              <path class="cls-7" d="M339.77,326.94c-1.94-3.21-6.2-4.92-10.44-6.27-.07-.02-.1.08-.04.1,1.08.34,7.99,3.52,10.43,6.22.03.03.07-.02.05-.05Z"/>
            </g>
            <g>
              <path class="cls-2" d="M304.17,333.54c2.66-4.18,9.46-11.71,16.2-14.3,4.56-1.75,16.97,8.01,16.52,11.01-.46,3-4.3,3.24-8.56,1.76-1.38-.48-5.99-3.72-7.29-2.12-1.87,2.31-6.43,8.03-6.43,8.03l-10.44-4.38Z"/>
              <path class="cls-7" d="M317.23,334.38c.43-.66.57-.89,1.01-1.54.44-.65.88-1.29,1.37-1.91.42-.53.82-1.12,1.4-1.48.56-.35,1.24-.43,1.88-.37,1.48.14,2.81,1.07,4.06,1.79,1.4.8,4.3,2.1,6.52,1.86.61-.07,1.21-.17,1.75-.48.35-.2.82-.45,1.05-.84.96-1.63-.24-3.5-1.47-4.82-2.29-2.46-5.38-4.24-8.37-5.7-.73-.36-1.48-.7-2.22-1.04-.85-.39-1.73-.76-2.69-.77-1.54-.01-4.07,1.56-4.85,2.03-.06.04-.1-.06-.05-.1.95-.59,3.3-2.52,5.78-2.39.91.05,1.76.51,2.59.87.87.37,1.72.78,2.57,1.2,1.65.82,3.25,1.73,4.74,2.8,1.41,1.01,2.92,2.19,3.88,3.66.83,1.28,1.08,3.1.27,4.44-.68,1.13-2.13,1.41-2.8,1.49-.66.09-1.3.07-1.96-.02-.69-.09-3.2-.82-4.27-1.24-1.35-.54-2.56-1.44-3.96-1.86-.66-.2-1.39-.21-2.01.13-.58.32-1.06.9-1.5,1.37-1.01,1.07-1.68,1.76-2.51,2.98-.2.3-.41.2-.23-.07Z"/>
            </g>
            <g>
              <path class="cls-2" d="M302.2,337.18c.98-1.99,2.62-10.18,4.2-12.69,1.58-2.51,8.79-11.2,12.16-10.83,4.24.47-.17,8.11-2.39,11.25-2.22,3.15-1.84,8.49-1.84,8.49l-12.13,3.78Z"/>
              <path class="cls-7" d="M319.25,319.7c-.79,1-1.49,2.1-2.17,3.17-.65,1.01-1.4,2.02-1.89,3.12-.49,1.11-.71,2.29-.82,3.49-.06.59-.07,1.18-.08,1.77,0,.65.05,1.3.04,1.94,0,.07.1.08.11,0,.05-1.17.26-2.36.46-3.51.21-1.2.57-2.39,1.06-3.5.99-2.22,2.44-4.2,3.44-6.41.04-.09-.09-.15-.15-.08Z"/>
              <path class="cls-7" d="M314.38,334.3c.1,1,.36,1.95.72,2.87.34.92.75,1.82,1.19,2.7.89,1.78,1.92,3.38,3.17,4.95,1.22,1.59,2.33,3.36,2.99,5.31.68,1.93.91,3.98.84,5.98-.3-1.98-.76-3.92-1.54-5.71-.77-1.8-1.85-3.42-3.07-4.98-.61-.78-1.23-1.6-1.75-2.49-.52-.88-.98-1.79-1.37-2.73-.76-1.86-1.39-3.89-1.18-5.91Z"/>
            </g>
          </g>
        </g>
        <g>
          <g>
            <path class="cls-12" d="M347.08,326.82l11.6,34.61c.46,1.01,0,1.89-1.02,1.97l-18.21,1.4c-1.02.08-2.21-.68-2.67-1.68l-11.6-34.61c-.46-1.01,0-1.89,1.02-1.97l18.21-1.4c1.02-.08,2.21.67,2.67,1.68Z"/>
            <path class="cls-22" d="M344.92,326.97l11.6,34.61c.46,1.01,0,1.89-1.02,1.97l-18.21,1.4c-1.02.08-2.21-.68-2.67-1.68l-11.6-34.61c-.46-1.01,0-1.89,1.02-1.97l18.21-1.4c1.02-.08,2.21.67,2.67,1.68Z"/>
            <path class="cls-7" d="M340.05,328.96c.08.85.84,1.48,1.7,1.39.85-.08,1.48-.84,1.39-1.7-.08-.85-.84-1.48-1.7-1.39-.85.08-1.48.84-1.39,1.7Z"/>
          </g>
          <g>
            <path class="cls-2" d="M417.08,403.43c-7.95,1.18-17.93-4.89-43.86-23.38-3.59-2.56,7.66-32.74,11.63-30.2,5,3.19,23.73,16.67,24.97,17.83,10.5,9.77,12.65,34.95,7.26,35.75Z"/>
            <g>
              <path class="cls-2" d="M394.13,358.84s-7.44-10.2-13.01-14.34c-7.45-5.55-16.18-7.28-19.88-7.78-7.72-1.05-27.11,1.75-27.28,7.48-.15,5.18,19.53,1.32,19.53,1.32,0,0-20.71.63-19.75,6.91.97,6.28,23.55.49,23.55.49,0,0-21.27,1.13-19.25,7.44,1.53,4.77,22.28.68,22.28.68,0,0-18.27,1.09-16.92,6.07,1.5,5.5,20.89,2.92,20.89,2.92,5.58,12.06,13.17,15.53,18.86,17.34,1.38.44,10.96-28.52,10.96-28.52Z"/>
              <g>
                <path class="cls-7" d="M360.65,344.83c-2.44-.01-4.9-.04-7.33.16-2.43.2-4.85.49-7.25.92-5.88,1.05-9.4,2.63-9.18,2.55,5.39-1.74,14.08-2.6,16.51-2.81,2.42-.2,4.84-.53,7.26-.73.06,0,.05-.09-.01-.09Z"/>
                <path class="cls-7" d="M361.54,353.59c-3.11.12-6.2.12-9.31.37-3.09.25-6,.76-9.07,1.23-.24.04-.14.15.1.12,3.08-.34,5.96-.42,9.04-.73,3.08-.3,6.16-.73,9.25-.92.05,0,.04-.08,0-.07Z"/>
                <path class="cls-7" d="M363.65,360.97c-4.76-.07-9.53.75-14.19,1.66-.23.05-.09.18.15.15,4.71-.64,8.4-1.18,14.04-1.64.09,0,.1-.16,0-.17Z"/>
              </g>
            </g>
          </g>
          <path class="cls-7" d="M402.66,362.35c2.11,1.28,4.12,2.71,6.06,4.24.98.75,1.91,1.57,2.82,2.43.9.85,1.75,1.85,2.41,2.92,1.33,2.14,2.34,4.41,3.17,6.75.81,2.34,1.49,4.74,1.71,7.21-.32-1.19-.67-2.36-1.1-3.51-.4-1.16-.84-2.3-1.33-3.42-.98-2.23-2.01-4.46-3.3-6.49-.62-1.04-1.37-1.92-2.23-2.78-.84-.87-1.75-1.68-2.65-2.51-.91-.82-1.84-1.62-2.77-2.42l-2.8-2.41Z"/>
        </g>
        <g>
          <g>
            <path class="cls-2" d="M365.84,316.61c-.18,1.36-5.68,10.75-13.12,10.39-4.33-.21-1.47-8.87-1.47-8.87l-3.87-11.75,14.13-11.05s4.4,20.7,4.33,21.28Z"/>
            <path class="cls-7" d="M363.12,303.07c-2.54,8.66-8.96,12.84-12.09,14.41l-3.66-11.09,14.13-11.05s.73,3.49,1.61,7.74Z"/>
          </g>
          <g>
            <path class="cls-2" d="M330.39,290.01c-.2,20.26,11.91,22.66,16.28,22.7,3.97.03,17.47-.35,19.76-20.48,2.29-20.13-7.07-26.62-16.13-27.18-9.07-.56-19.71,4.71-19.91,24.96Z"/>
            <g>
              <path class="cls-7" d="M335.36,288.43c.47-.1.88-.27,1.34-.41.51-.16.94-.24,1.29-.68.19-.23.13-.67-.08-.88-.49-.47-1.17-.43-1.79-.26-.68.19-1.15.5-1.56,1.07-.39.55.19,1.28.81,1.15Z"/>
              <path class="cls-7" d="M349.2,287.94c-.48-.01-.92-.1-1.39-.17-.53-.07-.96-.07-1.39-.44-.23-.2-.25-.64-.08-.88.4-.55,1.07-.63,1.72-.57.7.06,1.22.29,1.72.78.49.47.04,1.29-.59,1.28Z"/>
              <g>
                <g>
                  <path class="cls-7" d="M346.77,292.54c0-.05.11.06.11.11.05,1.38.33,2.95,1.61,3.33.04.01.04.08,0,.08-1.53-.11-1.89-2.2-1.72-3.52Z"/>
                  <path class="cls-7" d="M347.9,291.02c2.2-.31,2.67,4.12.63,4.41-2.01.29-2.47-4.14-.63-4.41Z"/>
                </g>
                <path class="cls-7" d="M348.79,291.16c.41.21.84.61,1.31.61.55,0,.9-.51,1.21-.99.03-.05.07-.02.08.04.1.85-.13,1.75-1.03,1.97-.82.2-1.49-.49-1.79-1.32-.06-.15.06-.4.22-.32Z"/>
              </g>
              <g>
                <g>
                  <path class="cls-7" d="M338.47,293.22c-.02-.05-.1.08-.09.13.2,1.37.2,2.96-.99,3.56-.04.02-.03.09.02.08,1.49-.38,1.47-2.51,1.06-3.77Z"/>
                  <path class="cls-7" d="M337.09,291.93c-2.22.08-1.9,4.52.16,4.45,2.03-.07,1.7-4.52-.16-4.45Z"/>
                </g>
                <path class="cls-7" d="M336.18,292.29c-.33.26-.65.71-1.07.77-.48.07-.88-.39-1.22-.82-.04-.05-.07,0-.07.05.04.85.39,1.71,1.21,1.82.75.09,1.25-.67,1.39-1.54.03-.16-.11-.39-.25-.28Z"/>
              </g>
              <path class="cls-7" d="M346.98,303.55c-.28.37-.54.86-1.03.97-.47.11-1.06-.02-1.52-.12-.05-.01-.08.04-.05.08.43.47,1.23.69,1.84.48.6-.2.83-.78.89-1.37,0-.08-.1-.1-.14-.04Z"/>
              <path class="cls-7" d="M340.77,299.12s-.09,2.08,0,3.05c0,.09.25.11.58.1.02,0,.03,0,.04,0,1.73.11,3.4-.64,4.31-2.14.06-.1-.07-.19-.16-.12-1.19,1.06-2.58,1.43-4.09,1.6-.09-.26.28-3.55.12-3.55-.53,0-1.54.46-2.15.7.07-4.33.83-8.62.83-12.94,0-.15-.23-.18-.26-.04-1.11,4.44-1.3,9.42-1.48,13.9-.03.56,1.9-.35,2.27-.56Z"/>
              <g>
                <path class="cls-7" d="M341.95,301.69s.9,1.09,2.07,1.44c.43.13.89.17,1.36.02.97-.31.95-1.21.73-1.97-.18-.63-.5-1.16-.5-1.16,0,0-1.37,1.42-3.66,1.68Z"/>
                <path class="cls-10" d="M344.02,303.13c.43.13.89.17,1.36.02.97-.31.95-1.21.73-1.97-1.05.16-2.05.93-2.09,1.96Z"/>
              </g>
            </g>
            <g>
              <path class="cls-7" d="M364.86,292.99c-3.68.91-5.65-5.53-5.65-5.53,0,0-16.17.58-19.05-12.24,0,0-1.75,9-9.75,11.91,0,0-1.11-16.31,9.84-20.4,0,0,13.4-6.74,22.57,3.45,9.17,10.18,4.51,22.2,2.03,22.81Z"/>
              <path class="cls-7" d="M340.23,275.07c.22,1.99.96,3.93,2,5.66,1.04,1.74,2.43,3.31,4.11,4.49.39.33.86.54,1.29.82l.66.39c.23.11.46.21.7.31.47.2.93.41,1.41.59.49.15.98.28,1.47.41.25.06.49.14.73.19l.75.11,1.49.22c1,.05,2.01.05,3,.04-.99-.19-1.97-.28-2.94-.48l-1.44-.34-.72-.17c-.23-.07-.46-.16-.69-.25-.46-.17-.92-.33-1.38-.49-.45-.19-.88-.42-1.32-.62l-.66-.31-.62-.38c-.4-.27-.85-.48-1.21-.79-1.6-1.1-2.92-2.55-4.05-4.13-.57-.79-1.06-1.65-1.49-2.53-.45-.88-.8-1.8-1.1-2.76Z"/>
            </g>
            <g>
              <path class="cls-2" d="M363,292.38s3.92-6.64,6.9-5.29c2.98,1.35.37,10.75-2.89,12.25-3.26,1.51-4.72-1.48-4.72-1.48l.71-5.48Z"/>
              <path class="cls-7" d="M369.08,289.76c.05,0,.07.07.02.09-2.28,1.14-3.35,3.41-4.05,5.75.63-.93,1.55-1.48,2.78-.73.06.04.01.14-.05.13-.98-.13-1.66.09-2.26.91-.42.58-.68,1.3-.96,1.96-.09.22-.48.14-.42-.11,0-.02.01-.04.01-.06-.29-3,1.72-7.38,4.92-7.93Z"/>
            </g>
          </g>
        </g>
      </g>
      <line class="cls-26" x1="307.45" y1="288.71" x2="273.22" y2="260.74"/>
    </g>
  </g>
  <g id="Character_4" data-name="Character 4">
    <g>
      <g>
        <circle class="cls-14" cx="102.8" cy="360.37" r="58.98" transform="translate(-270.57 392.4) rotate(-78.98)"/>
        <circle class="cls-26" cx="102.8" cy="360.37" r="66.62" transform="translate(-269.86 399.85) rotate(-80.12)"/>
      </g>
      <g>
        <g>
          <g>
            <path class="cls-5" d="M111.95,334.03c1.74,9.79,7.6,53.28,16.01,57.23,13.7,6.44,18.07,6.21,29.47,8.29,6.44,1.18,13.95-32.98,8.04-32.64-9.61.55-18.08.71-20.53.28-2.3-.4-10.94-24.93-21.05-38.12-9.1-11.88-13.16-1.93-11.93,4.96Z"/>
            <g>
              <path class="cls-5" d="M154.23,398.54c.54.18,8.21,2.74,12.82,3.38,3.44.48,13.36,1.59,14.27-2.15.62-2.54-5.14-3.88-9.2-4.92-2.14-.55-4.92-2.29-4.52-3.67.71-2.41,6.22-.89,9.92.59,7.15,2.87,16.93,8.49,20.47,4.56,1.34-1.49-.76-3.53-3.68-5.41,4.58,2.02,9.37,3.53,10.92,1.94.89-.91.79-1.96.05-3.07,1.36.23,2.49-.02,3.16-.97,1.16-1.63.19-3.64-1.62-5.58.47-.12.87-.43,1.12-.99,2.25-4.82-14.04-15.37-19.21-15.82-15.21-1.36-30.62,1.54-30.62,1.54-5.11,5.45-3.9,30.57-3.89,30.58Z"/>
              <g>
                <path class="cls-7" d="M173.89,381.86c3.54.04,7.14.84,10.36,2.35,4.09,1.92,6.98,4.44,10.53,6.89.09.06,0,.21-.1.15-1.69-1.16-8.62-5.45-10.39-6.4-3.24-1.73-6.72-2.78-10.4-2.93-.04,0-.04-.06,0-.06Z"/>
                <path class="cls-7" d="M175.72,375.22c4.02.5,8.13.99,11.99,2.3,4.22,1.43,7.76,4.25,11.24,6.95,2.09,1.62,4.14,3.29,6.15,5,.08.07,0,.22-.1.15-3.54-2.8-7.15-5.49-10.86-8.07-3.48-2.42-7.22-4.12-11.36-5.05-2.33-.52-4.7-.86-7.07-1.2-.04,0-.04-.08,0-.07Z"/>
                <path class="cls-7" d="M179.06,369.16c3.87.23,7.24.41,10.86,1.94,4.79,2.03,9.69,5.9,11.41,7.27,1.9,1.52,3.75,3.1,5.58,4.71.07.07-.04.2-.11.13-4.15-3.5-8.54-6.75-13.1-9.68-2.18-1.4-4.5-2.56-7.01-3.24-2.48-.67-5.07-.87-7.62-1.11-.02,0-.02-.03,0-.03Z"/>
              </g>
            </g>
          </g>
          <g>
            <path class="cls-3" d="M145.59,364.81l-27.54,24.37s-7.57-39.05-7.71-55.83c-.15-17.49,6.31-21.68,17.94-1.66,11.46,19.73,17.31,33.12,17.31,33.12Z"/>
            <path class="cls-7" d="M118.66,380.74c.63-.68,1.35-1.29,2.04-1.91.71-.64,1.41-1.29,2.11-1.93,1.43-1.31,2.88-2.59,4.33-3.86,2.91-2.54,5.81-5.1,8.76-7.6.81-.69,1.63-1.37,2.45-2.03.87-.7,1.79-1.34,2.66-2.03.05-.04.11.04.06.08-.7.65-1.35,1.36-2.05,2.02-.72.67-1.44,1.34-2.17,1.99-1.44,1.29-2.9,2.56-4.36,3.82-2.88,2.48-5.76,4.98-8.69,7.4-.82.68-1.64,1.35-2.46,2.02-.86.71-1.69,1.48-2.61,2.1-.05.03-.11-.03-.07-.08Z"/>
            <path class="cls-41" d="M110.33,333.35c.14,16.78,7.71,55.83,7.71,55.83l23.06-20.41-25.16-50.38c-3.74-.36-5.7,5.26-5.62,14.96Z"/>
          </g>
        </g>
        <path class="cls-47" d="M141.72,404.69c-10.39,9.14-24,14.67-38.92,14.67s-28.3-5.44-38.64-14.44c8.23-26.52,25.31-76.16,35.47-84.27.68-.54,1.67-1.01,2.83-1.39.06-.01.11-.02.13-.03,1.15-.35,2.47-.62,3.86-.79,5.01-.62,10.9.03,12.68,2.35,6.15,8.02,17.3,57.31,22.59,83.9Z"/>
        <g>
          <g>
            <path class="cls-5" d="M86.07,337.57c-11.72,19.37-27.96,49.45-23.37,65.49,4.42,15.45,73.12,13.25,84.75,11.6,5.03-.71-.67-35.43-6.09-35.05-8.93.62-44.37-.97-45.03-.97,0,0,2.55-20.54,6.71-38.41,5.67-24.32-6.33-20.25-16.97-2.66Z"/>
            <path class="cls-7" d="M96.33,378.67l-3.8,1.96c-1.26.67-2.51,1.32-3.75,2.02-1.25.67-2.47,1.39-3.7,2.1-1.24.7-2.43,1.48-3.66,2.21,2.1-1.96,4.5-3.58,7.01-4.96,1.26-.68,2.54-1.33,3.87-1.88,1.32-.56,2.66-1.07,4.05-1.44Z"/>
            <g>
              <g>
                <g>
                  <rect class="cls-30" x="101.67" y="397.21" width="78.41" height="3.51"/>
                  <polygon class="cls-39" points="180.07 397.21 180.07 400.72 126.78 400.72 129.46 397.21 180.07 397.21"/>
                </g>
                <g>
                  <polygon class="cls-39" points="137.56 400.72 206.18 400.72 216.11 352.31 147.49 352.31 137.56 400.72"/>
                  <polygon class="cls-30" points="140.76 400.72 209.39 400.72 219.31 352.31 150.69 352.31 140.76 400.72"/>
                  <path class="cls-13" d="M186.23,374.71c.07,2.29-1.46,4.47-3.42,4.88-1.96.41-3.61-1.11-3.68-3.4-.07-2.29,1.46-4.47,3.42-4.88,1.96-.41,3.61,1.11,3.68,3.4Z"/>
                </g>
              </g>
              <g>
                <path class="cls-5" d="M134.98,405.19c5.4,2.93,11.93,9.93,16.43,10.72,4.06.71,5.68-2.61,5.68-2.61,0,0,2.01,4.64,6.21,4.68,2.16.02,4.1-3.41,4.1-3.41,0,0,1.77,3.65,5.51,3.46,2.98-.15,4.47-3.57,4.47-3.57,0,0,3.33,2.71,6.32,1.58,6.05-2.29,7.43-27.86-1.77-32.32-4.29-2.08-4.29,4.19-4.29,4.19,0,0-2.18-9.01-7.44-9.42-5.26-.42-4.77,7.72-4.77,7.72,0,0-2.19-8.71-7.69-8.59-5.73.12-3.84,8.18-3.84,8.18,0,0-3.55-5.89-7.74-4.84-6.92,1.74.91,15.1-.72,20.64h-9.15s-1.31,3.61-1.31,3.61Z"/>
                <path class="cls-5" d="M142.76,410.19c-5.36-2.33-7.92,1.49-13.52.76-6.21-.82-4.19-8.11,6.73-9.39l9.47.02-2.68,8.62Z"/>
                <g>
                  <path class="cls-7" d="M177.7,413.94c-.01.08.11.12.13.03,2.5-8.3,2.71-18.18-.15-26.42-.09-.27-.57-.24-.53.08,1.32,9.05,1.77,17.19.55,26.31Z"/>
                  <path class="cls-7" d="M167.45,414.69c-.01.1.15.12.18.02,2.53-8.57,2.46-19.71-1.95-28.81-.15-.31-.6-.44-.45-.07,2.48,6.28,3.37,20.66,2.23,28.86Z"/>
                  <path class="cls-7" d="M153.38,385.21c3.89,8.9,4.54,18.15,3.84,27.74,0,.12.17.12.2.02,1.62-4.6,1.43-10.76.87-15.55-.53-4.58-1.93-8.61-4.61-12.35-.1-.15-.39-.05-.31.14Z"/>
                </g>
                <path class="cls-7" d="M150.41,415.64c-3.37-1.03-6.09-3.45-8.93-5.36-.36-.22-.74-.43-1.11-.52-.36-.07-.79,0-1.2.06-.84.15-1.67.4-2.51.62-1.69.44-3.39.89-5.16,1.09-.88.1-1.79.13-2.71-.03-.9-.16-1.84-.56-2.48-1.3-.32-.36-.57-.78-.72-1.23-.17-.44-.26-.93-.24-1.41.02-.99.54-1.87,1.16-2.53,1.3-1.31,2.96-2.05,4.61-2.63,1.67-.52,3.42-.93,5.17-.84-1.74.09-3.43.6-5.03,1.21-1.59.63-3.17,1.45-4.29,2.68-.55.61-.96,1.34-.96,2.12-.02.76.31,1.58.82,2.14.52.58,1.28.9,2.08,1.04.81.14,1.66.14,2.5.06,1.7-.16,3.38-.58,5.07-1,.85-.2,1.7-.4,2.59-.53.44-.05.9-.11,1.4,0,.47.13.86.37,1.23.61,1.47.99,2.76,2.15,4.17,3.17,1.4,1.02,2.88,1.95,4.52,2.57Z"/>
              </g>
            </g>
          </g>
          <g>
            <path class="cls-42" d="M98.06,374.62l-36.76.96s19.3-34.78,29.98-47.72c11.13-13.49,18.77-12.56,14.81,10.26-3.9,22.48-8.02,36.5-8.02,36.5Z"/>
            <g>
              <path class="cls-7" d="M67.19,369.52c.92-.12,1.87-.12,2.79-.15.95-.04,1.91-.08,2.86-.12,1.93-.08,3.87-.13,5.8-.17,3.86-.08,7.73-.17,11.59-.19,1.06,0,2.13,0,3.19.02,1.12.02,2.23.13,3.35.15.07,0,.06.1,0,.11-.96.05-1.91.18-2.87.23-.98.05-1.96.1-2.94.13-1.93.06-3.86.1-5.8.12-3.8.05-7.61.12-11.42.09-1.06,0-2.12-.03-3.19-.04-1.11,0-2.25.04-3.35-.07-.06,0-.07-.1,0-.1Z"/>
              <path class="cls-7" d="M102.58,357.46c.74-1.22,1.31-2.56,1.53-3.97,0-.03-.04-.04-.05-.01-.38,1.22-.83,2.41-1.4,3.54.1-.51.2-1.02.31-1.53.36-1.85.74-3.69,1.01-5.55,0-.03-.04-.04-.05-.01-.85,3.17-1.56,6.38-2.34,9.57-.79,3.23-1.56,6.47-2.33,9.71-.42,1.77-.85,3.53-1.23,5.31-.6.06-1.07.06-1.59.12-.15.02-.15.26,0,.27.67.03,1.98,0,2-.08,1.7-5.7,2.97-11.53,4.14-17.36Z"/>
            </g>
          </g>
        </g>
        <g>
          <g>
            <path class="cls-5" d="M116.38,333.76c-4.61.73-11.86-6.78-14.51-12.62-.18-.4.72-4.41,1.57-9.33.51-2.99,1-6.33,1.23-9.41l18.97,6.15s-2.38,6.32-2.76,11.69c-.03.45-.01.87.04,1.27,0,.06.01.13.01.21.21,2.43-.1,11.33-4.56,12.04Z"/>
            <path class="cls-7" d="M106,302.84c.25,4.12,1.93,17.76,12.93,18.84.72.08,1.39.09,2,.04,0-.08-.01-.15-.01-.21-.05-.41-.07-.83-.04-1.28.37-5.37,2.75-11.69,2.75-11.69l-17.63-5.71Z"/>
          </g>
          <g>
            <path class="cls-5" d="M107.66,277.28c-3.63,6.2-4.7,26.35-.97,31.78,5.41,7.88,16.55,11.17,23.82,4.14,7.05-6.81,7.98-33.09,3.6-38.27-6.45-7.63-21.09-6.82-26.45,2.34Z"/>
            <g>
              <g>
                <path class="cls-7" d="M123.19,293.81c0-.05-.11.06-.11.11-.04,1.36-.31,2.91-1.56,3.29-.04.01-.04.08,0,.08,1.51-.12,1.85-2.19,1.66-3.48Z"/>
                <path class="cls-7" d="M122.07,292.32c-2.17-.29-2.6,4.07-.58,4.35,1.98.27,2.41-4.1.58-4.35Z"/>
              </g>
              <g>
                <path class="cls-7" d="M131.25,294.31c.02-.05.1.07.09.13-.17,1.35-.15,2.92,1.03,3.49.04.02.03.09-.02.07-1.47-.36-1.49-2.44-1.11-3.69Z"/>
                <path class="cls-7" d="M132.6,293.02c2.19.05,1.94,4.43-.09,4.38-2-.04-1.74-4.42.09-4.38Z"/>
              </g>
              <path class="cls-7" d="M120.54,290.16c.61-.09,1.16-.28,1.75-.43.67-.17,1.22-.24,1.7-.78.26-.29.22-.86-.04-1.13-.6-.64-1.47-.64-2.29-.46-.88.19-1.52.56-2.08,1.27-.55.68.15,1.66.96,1.54Z"/>
              <path class="cls-7" d="M134.5,290.98c-.6-.16-1.12-.4-1.69-.62-.65-.24-1.19-.37-1.6-.96-.22-.32-.12-.87.16-1.12.66-.57,1.53-.47,2.32-.21.86.29,1.45.72,1.93,1.49.47.74-.33,1.63-1.12,1.42Z"/>
              <path class="cls-7" d="M120.95,306.05c.29.35.57.82,1.06.9.47.09,1.04-.07,1.49-.2.04-.01.08.04.05.08-.4.49-1.17.74-1.79.57-.6-.17-.85-.73-.95-1.3-.01-.08.09-.1.14-.05Z"/>
              <path class="cls-7" d="M122.77,302.14c.64,1.25,1.69,2,2.87,2.35.53.16,1.09.23,1.65.24.11,0,.22,0,.32,0,.1,0,.19,0,.3-.02.16,0,.26-.13.3-.28h0c0-.06,0-.1,0-.15h0s0-.13,0-.13c.13-1.04.18-2.63.18-2.63.36.23,2.22,1.29,2.24.74.17-4.53.36-9.57-.43-14.11-.02-.15-.25-.14-.25.01-.33,4.35.1,8.73-.17,13.1-.6-.3-1.56-.83-2.11-.87-.15.03-.05,3.08-.14,3.54,0,0,0,.02-.01.05-1.77.05-3.04-.6-4.62-1.94-.09-.09-.21,0-.14.11Z"/>
            </g>
            <g>
              <path class="cls-7" d="M131.05,279.91c-1.86,1.87-4.56,2.7-7.15,2.09-2.52-.6-4.92-2.54-5.66-5.07-.02-.08-.14-.04-.12.03.79,2.71,2.77,5.04,5.62,5.64,2.68.56,5.67-.47,7.44-2.56.08-.09-.05-.22-.14-.13Z"/>
              <path class="cls-7" d="M124.95,262.93c-3.09-1.14-6.7.07-8.81,2.51-1.28,1.48-1.99,3.22-2.41,5.11-.02.08.1.11.12.03.81-2.94,2.95-5.79,5.86-6.9,2.79-1.06,5.82-.52,7.83,1.75,1.05,1.19,1.7,2.73,1.76,4.31,0,.18.27.17.27,0,.08-2.98-1.83-5.77-4.62-6.81Z"/>
              <path class="cls-7" d="M148.11,272.39c-.51-2.11-1.82-3.97-3.57-5.24-2.45-1.77-5.37-1.74-8.26-1.66-.08,0-.08.12,0,.12,2.47-.07,4.97.01,7.14,1.33,1.77,1.07,3.19,2.75,3.87,4.71,1.41,4.07-.54,8.85-4.44,10.71-2.21,1.05-4.86,1.13-7.13.21-.09-.04-.17.09-.07.13,4.14,1.8,9.27.22,11.49-3.76,1.1-1.96,1.51-4.36.97-6.56Z"/>
              <path class="cls-7" d="M106.74,278.24s.9-6.11,2.66-7.85,5.32-1.86,5.32-1.86c0,0,2.52-5.01,7.51-4.92,4.48.09,7.14,4.28,7.14,4.28,0,0,6.7-5.56,13.43-1.46,6.39,3.89,4.63,13.99-2.13,16.67-4.75,1.88-10.65-2.65-10.65-2.65-.6.04-7,3.26-11.21-2.55,0,0-4.45,2.88-6.65.39,0,0-3.34,1.23-5.42-.06Z"/>
            </g>
            <path class="cls-8" d="M104.38,294.35c1.25-.74,3.94-5.7,5.16-7.76,1.11-1.87,1.91-9.79,2.24-13.75-1.65,1.15-3.06,2.63-4.12,4.43-1.9,3.24-3.1,10.3-3.28,17.08Z"/>
            <g>
              <path class="cls-5" d="M108.04,294s-3.02-7.22-6.21-6.28c-3.19.95-1.86,10.75,1.21,12.72,3.07,1.97,4.95-.84,4.95-.84l.05-5.61Z"/>
              <path class="cls-7" d="M102.28,290.52c-.05-.02-.08.06-.04.09,2.14,1.46,2.9,3.9,3.27,6.34-.51-1.02-1.35-1.7-2.7-1.12-.07.03-.03.14.04.14,1,0,1.66.32,2.14,1.23.34.64.51,1.4.7,2.1.06.23.47.2.44-.06,0-.02,0-.04,0-.06.71-2.97-.71-7.66-3.85-8.66Z"/>
            </g>
          </g>
        </g>
      </g>
      <line class="cls-26" x1="172.37" y1="276.88" x2="142.67" y2="306.74"/>
    </g>
  </g>
  <g id="Character_3" data-name="Character 3">
    <g>
      <g>
        <circle class="cls-14" cx="216.53" cy="226.23" r="58.98"/>
        <circle class="cls-26" cx="216.53" cy="226.23" r="66.62"/>
      </g>
      <g>
        <g>
          <g>
            <path class="cls-6" d="M223.62,210.8c11.35,22.74,25.71,47.33,38.92,51.06,12.57,3.55,36.5-27.5,44.03-35.69,2.71-2.95-19.75-19.44-23.17-16.86-6.45,4.87-18.01,18.05-19.98,17.62-2.05-.46-18.53-15.81-33.48-28.75-9.06-7.84-14.17-3.12-6.31,12.63Z"/>
            <g>
              <g>
                <path class="cls-6" d="M303.43,230.19c2.81-2.33,17.27-15.85,19.86-19.88,2.59-4.03,9.19-16.16,6.3-18.46-2.88-2.29-5.1,1.1-5.1,1.1,0,0,1.98-5.56-1.14-7.61-3.11-2.04-6.39,3.35-6.39,3.35,0,0,1.61-5.86-1.64-7.68-3.25-1.82-5.63,4.16-5.63,4.16,0,0,1.72-5.29-1.58-5.66-3.98-.44-6.06,9.67-9.25,13.9-.72.96-16.06,18.44-16.06,18.44l20.63,18.32Z"/>
                <g>
                  <path class="cls-7" d="M309.91,184.69c-1.55,7.43-3.51,10.42-8.7,15.8-.1.1.03.28.15.18,5.56-4.8,8.57-8.19,8.92-15.92.02-.38-.29-.41-.36-.06Z"/>
                  <path class="cls-7" d="M317.08,188.12c-2.28,7.58-4.38,10.84-9.4,16.87-.07.09.07.21.14.13,5.42-5.5,8.34-8.96,9.62-16.83.06-.36-.26-.52-.36-.17Z"/>
                  <path class="cls-7" d="M324.23,193.26c-2.74,7.18-4.88,10.85-10.51,16.08-.13.12.03.33.18.22,6.26-4.77,8.97-9.33,10.54-16.19.11-.47-.04-.56-.21-.11Z"/>
                </g>
              </g>
              <g>
                <path class="cls-6" d="M278.93,216.3s.65-9.49,1.86-13.6c1.21-4.11,11.34-17.76,14.41-15.73,3.97,2.61-.33,11.64-3.01,15.79,0,0,9.18,6.03,7.5,13.18-1.68,7.15-20.76.37-20.76.37Z"/>
                <path class="cls-7" d="M296.06,188.04c1.9,4.99-1.97,10.21-4.27,14.43-.17.32.02.57.29.66,3.68,2.78,8.06,7.78,7.87,12.65,0,.14.2.17.22.03.91-5.19-2.99-10.45-7.21-13.24,2.43-4.29,6.08-9.69,3.15-14.54-.02-.03-.06-.01-.05.02Z"/>
              </g>
            </g>
          </g>
          <g>
            <path class="cls-16" d="M277.78,210.86l24.25,26.8s-26.79,28.82-39.02,25.49c-12.23-3.32-35.88-36.2-42.89-57.49-4.86-14.73,4.32-13.09,12.71-5.74,8.39,7.34,30.36,25.59,31.35,25.35.98-.24,13.61-14.41,13.61-14.41Z"/>
            <path class="cls-41" d="M270.29,262.37c-2.71.99-5.2,1.35-7.28.79-12.23-3.32-35.88-36.2-42.89-57.49-3.01-9.13-.63-11.97,3.62-11.05,11.37,16.6,37.64,54.79,46.55,67.75Z"/>
            <path class="cls-7" d="M293.9,241.87c-3.52-3.7-17.35-19.36-20.11-22.95-.19-.25-.08-.43.15-.2,10.8,10.83,16.84,19.2,20.1,23,.08.1-.05.24-.14.14Z"/>
          </g>
        </g>
        <path class="cls-29" d="M253.1,274.57c-10.4,6.58-22.74,10.39-35.97,10.39-15.74,0-30.21-5.39-41.68-14.45,3.68-19.14,12.73-51.8,31.46-73.32,5.23-6.01,19.49-4.25,21.15-1.84,11.18,16.25,21.11,58.64,25.03,79.22Z"/>
        <g>
          <g>
            <polygon class="cls-39" points="249.72 285.7 291.92 288.21 303.44 228.95 261.24 226.45 249.72 285.7"/>
            <polygon class="cls-30" points="251.79 285.82 293.99 288.33 305.51 229.07 263.31 226.57 251.79 285.82"/>
            <path class="cls-13" d="M284.35,255.16c-.33,2.26-2.44,3.97-4.71,3.84-2.27-.13-3.83-2.07-3.5-4.33.33-2.26,2.44-3.97,4.71-3.84,2.27.13,3.83,2.07,3.5,4.33Z"/>
          </g>
          <g>
            <path class="cls-6" d="M197.71,209.87c-8.91,18.36-27.69,60.01-18.76,67.34,14.69,12.05,46.71,19.29,56.56,20.48,4.25.51,13.64-31.35,9.41-33.1-5.07-2.11-36.33-8.54-36.72-9.94-.43-1.53,1.58-22.56.64-38.72-1.17-20.06-7.42-13.72-11.13-6.06Z"/>
            <g>
              <path class="cls-6" d="M229.85,265.07s11.69-5.74,19.51-9.13c4.36-1.89,12.13-4.47,15.97-4.4,5.74.11,29.7,4.25,28.82,10.08-.8,5.28-20.92-.89-20.92-.89,0,0,20.86,4.43,18.74,10.61-2.13,6.18-23.94-3.82-23.94-3.82,0,0,21.33,5.03,18.13,11.06-2.42,4.55-22.69-3.39-22.69-3.39,0,0,18.31,4.45,16.02,9.24-2.53,5.29-21.69-.86-21.69-.86-7.86,11.2-15.89,13.89-22.28,14.11-1.49.05-5.66-32.61-5.66-32.61Z"/>
              <g>
                <path class="cls-7" d="M267.08,258.98c15.62,2.09,22.63,7.9,22.42,7.78-5.14-2.75-13.78-5.21-16.2-5.86-2.42-.65-3.82-1.18-6.24-1.83-.06-.02-.03-.1.03-.09Z"/>
                <path class="cls-7" d="M263.6,267.45c7.46.51,15.66,3.51,18.32,4.99.21.12.11.18-.12.11-3.06-.91-15.13-4.26-18.22-5.02-.05-.01-.03-.08.02-.07Z"/>
                <path class="cls-7" d="M260.1,274.53c6.63.96,9.51,2.05,14.07,4.28.22.11.06.2-.18.12-4.65-1.51-8.29-2.73-13.92-4.23-.09-.02-.07-.18.03-.17Z"/>
              </g>
            </g>
          </g>
          <g>
            <path class="cls-28" d="M235.13,261.6l-10.4,37.99s-42.94-14.38-47.63-23.82c-4.69-9.44,14.47-57.8,21.04-68.13,6.57-10.33,9.84-7.13,11.37,3.1,1.53,10.22-.98,43.34-.69,43.9.3.56,26.32,6.96,26.32,6.96Z"/>
            <path class="cls-7" d="M209.14,239.15c.12-2.47.23-4.94.32-7.42.05-1.29.09-2.57.15-3.85.03-.59.06-1.18.09-1.78.02-.29.06-.59.06-.89-.01-1.08,0-.12.09-1.18,0-.07.12-.07.12,0,.05.67.14.38.09.9-.03.39,0,.77,0,1.16.01.59.02,1.18.03,1.77.02,1.21,0,2.42-.01,3.64,0,.16,0,.32-.01.48,0-.04.01-.09.02-.13.22-1.35.45-2.69.68-4.04.01-.06.1-.05.09.01-.07,1.37-.2,2.72-.4,4.08-.12.78-.28,1.56-.45,2.33-.04,1.62-.07,3.24-.13,4.86-.19,5.02-.4,10.07-.99,15.06,2.22.58,4.46,1.07,6.68,1.66,2.23.59,4.44,1.22,6.66,1.84,2.22.62,4.43,1.23,6.64,1.89,1.05.31,2.1.65,3.15.97,1.14.35,2.25.84,3.39,1.16.12.03.05.21-.07.17-1.19-.32-2.42-.48-3.62-.77-1.05-.26-2.11-.5-3.16-.77-2.23-.57-4.46-1.18-6.68-1.79-2.22-.61-4.44-1.21-6.66-1.84-2.21-.63-4.39-1.37-6.59-2.01-.08-.02-.13-.07-.15-.13-.09-.05-.16-.12-.16-.25.17-5.05.57-10.09.82-15.14Z"/>
            <path class="cls-7" d="M221.14,278.3c.79-2.76,4.01-13.77,5.02-16.44.02-.04.09-.03.08.02-.46,2.74-3.33,13.7-4.11,16.46-1.56,5.51-3.02,11.09-5.18,16.4-.04.09-.2.07-.18-.04,1.09-5.55,2.82-10.96,4.37-16.4Z"/>
          </g>
        </g>
        <g>
          <path class="cls-19" d="M223.07,213.4s-13.42-10.28-21.17-9.07l-5.89,6.66s-2.08.97-2.92-.32c-2.07-3.19-3.39-11.37,3.02-17.55,5.88-5.66,19.27-6.28,28.39-5.02,8.76,1.21,14.04,5.64,12.1,11.49-1.93,5.85-13.55,13.82-13.55,13.82Z"/>
          <path class="cls-41" d="M223.61,210.7s8.89-8.13,9.4-12.37c.5-4.25-8.22-7.18-13.74-8.08-8.54-1.39-14.09-.18-18.17,4.78-4.09,4.96,22.51,15.67,22.51,15.67Z"/>
          <path class="cls-43" d="M223.61,210.7s-11.6-15.12-23.81-15.27l2.1,8.9s7.17-.85,21.17,9.07l.54-2.7Z"/>
          <g>
            <path class="cls-7" d="M198.69,204.88c2.17-.54,4.41-.32,6.55.08,2.16.41,4.24,1.15,6.24,2.04,2.02.86,3.94,1.94,5.83,3.06l2.77,1.8,2.69,1.93.3.22.28-.19c2.12-1.43,4.11-2.99,6-4.69.94-.85,1.87-1.72,2.71-2.68.84-.95,1.65-1.94,2.28-3.03-1.56,1.99-3.48,3.62-5.42,5.2-.98.78-1.99,1.52-3.01,2.25-1.02.72-2.06,1.44-3.1,2.1l.58.02-2.7-2c-.93-.63-1.87-1.24-2.81-1.85-.98-.55-1.95-1.12-2.94-1.64-1.02-.48-2.02-1-3.08-1.39-2.08-.86-4.28-1.45-6.51-1.76-.56-.09-1.12-.11-1.68-.16-.56,0-1.13-.02-1.69.02-1.12.06-2.25.23-3.28.66Z"/>
            <path class="cls-7" d="M196.02,210.98c1.14-.97,2.16-2.05,3.15-3.15.97-1.12,1.92-2.26,2.74-3.51-1.14.97-2.16,2.05-3.15,3.15-.97,1.12-1.92,2.26-2.74,3.51Z"/>
          </g>
          <g>
            <path class="cls-21" d="M218.08,207.45s-.87,4.71-.8,11.49c.02,2.68,1.35,12.26,4.31,11.83,2.97-.44-2.07-6.5-3.08-11.54-1.02-5.12.24-8.8.33-11.84l-.76.07Z"/>
            <path class="cls-45" d="M218.08,207.45s-.87,4.71-.8,11.49c.02,2.68,1.35,12.26,4.31,11.83,2.97-.44-2.07-6.5-3.08-11.54-1.02-5.12.24-8.8.33-11.84l-.76.07Z"/>
          </g>
          <g>
            <path class="cls-21" d="M228.95,206.5s1.51,4.07,2.53,10.13c.4,2.4.73,11.16-1.99,11.24-2.72.08.83-6.13.93-10.79.11-4.73-1.6-7.82-2.16-10.52l.69-.06Z"/>
            <path class="cls-18" d="M228.95,206.5s1.51,4.07,2.53,10.13c.4,2.4.73,11.16-1.99,11.24-2.72.08.83-6.13.93-10.79.11-4.73-1.6-7.82-2.16-10.52l.69-.06Z"/>
          </g>
          <g>
            <path class="cls-7" d="M206.41,172.62s.21,4.78-.22,6.43c-.43,1.66-4.15,3.39-4.15,3.39,0,0,4.25,1.5,5.45,1.22,1.21-.29,3.15-3.38,3.15-3.38,0,0-1.79,4.95-3.52,5.21-1.07.16,2.63.2,2.63.2,0,0,1.97-.07,3.23-1.5s-6.58-11.57-6.58-11.57Z"/>
            <g>
              <path class="cls-6" d="M225.91,207.39c-4.51,1.2-12.5-5.51-15.74-11.05-.22-.38.26-4.46.6-9.45.2-3.03.34-6.4.25-9.49l19.5,4.15s-1.72,6.53-1.53,11.91c.02.45.08.87.17,1.26,0,.06.03.13.03.21.46,2.4,1.07,11.28-3.29,12.44Z"/>
              <path class="cls-7" d="M229,193.47c.02.39.07.75.14,1.1-9.61-1.36-15.17-6.39-18.2-10.56.11-2.19.16-4.46.1-6.6l19.5,4.15s-1.72,6.53-1.53,11.91Z"/>
            </g>
            <g>
              <path class="cls-6" d="M206.17,155.78c-1.46,7.03,3.96,26.47,9.24,30.43,7.64,5.74,19.25,5.29,23.9-3.68,4.51-8.7-3.01-33.91-8.81-37.41-8.55-5.16-22.16.28-24.32,10.67Z"/>
              <g>
                <g>
                  <path class="cls-7" d="M223.95,166.08s-.09.09-.07.14c.4,1.3.64,2.85-.43,3.61-.03.02-.01.09.03.07,1.39-.6,1.05-2.66.46-3.83Z"/>
                  <path class="cls-7" d="M222.41,165.03c-2.15.42-1.16,4.69.83,4.3,1.96-.38.97-4.65-.83-4.3Z"/>
                </g>
                <g>
                  <path class="cls-7" d="M231.85,163.79c0-.05.12.04.13.09.27,1.33.79,2.82,2.09,2.98.04,0,.05.07,0,.08-1.51.13-2.19-1.84-2.23-3.15Z"/>
                  <path class="cls-7" d="M232.71,162.14c2.09-.66,3.25,3.58,1.31,4.18-1.91.6-3.07-3.63-1.31-4.18Z"/>
                </g>
                <path class="cls-7" d="M220.27,163.46c.55-.28,1.01-.63,1.52-.97.58-.38,1.08-.62,1.36-1.28.15-.36-.07-.88-.4-1.06-.77-.42-1.6-.13-2.31.29-.78.46-1.26,1.02-1.57,1.87-.3.82.67,1.52,1.4,1.15Z"/>
                <path class="cls-7" d="M233.87,159.6c-.61.04-1.19-.02-1.8-.05-.69-.03-1.24.03-1.83-.4-.31-.23-.4-.79-.2-1.11.45-.76,1.3-.94,2.13-.94.9,0,1.6.22,2.3.79.68.55.21,1.65-.6,1.71Z"/>
                <path class="cls-7" d="M226.27,178.33c.39.24.8.59,1.29.52.47-.07.96-.4,1.35-.66.04-.03.09,0,.07.05-.23.59-.87,1.07-1.51,1.11-.62.03-1.04-.41-1.31-.93-.04-.07.06-.12.11-.09Z"/>
                <path class="cls-7" d="M226.74,174.04c1.01.98,2.24,1.35,3.47,1.31.55-.02,1.11-.13,1.64-.3.11-.03.21-.06.3-.11.09-.03.18-.07.28-.11.15-.06.2-.21.2-.36h0c-.01-.06-.02-.1-.04-.14h0s-.03-.13-.03-.13c-.21-1.03-.67-2.55-.67-2.55.42.1,2.51.51,2.36-.01-1.29-4.35-2.72-9.18-4.92-13.23-.07-.14-.28-.05-.23.09,1.07,4.23,2.88,8.24,4.03,12.47-.66-.09-1.75-.29-2.28-.15-.14.08.94,2.94,1,3.4,0,0,0,.02,0,.05-1.66.62-3.07.4-5-.36-.12-.05-.2.06-.1.15Z"/>
                <g>
                  <path class="cls-7" d="M231.14,174.84s-.68,1.4-1.85,2.08c-.43.25-.91.41-1.46.37-1.12-.08-1.33-1.06-1.29-1.93.03-.72.24-1.37.24-1.37,0,0,1.83,1.17,4.36.86Z"/>
                  <path class="cls-32" d="M229.29,176.91c-.43.25-.91.41-1.46.37-1.12-.08-1.33-1.06-1.29-1.93,1.17-.09,2.44.47,2.75,1.56Z"/>
                </g>
              </g>
              <path class="cls-7" d="M208.79,173.77c3.39-1.66,3.04-13.95,3.04-13.95l1.87,6.45s2.35-2.71,3.1-5.89c.54-2.27-.28-5.17-.88-6.55,0,0,4.7,3.43,9.47,3.82,1.76.14,14.1-2.14,13.97-2.91-.41-2.29-6.76-9.59-10.25-11.14-4.02-1.79-9.55-3.23-16.43.93-6.87,4.16-7.95,9.25-8.38,13.13-.43,3.88,3.23,16.74,4.48,16.13Z"/>
              <g>
                <path class="cls-6" d="M211.87,171.5s-5.17-5.88-7.89-3.96c-2.72,1.91,1.67,10.79,5.21,11.67,3.54.88,4.42-2.38,4.42-2.38l-1.74-5.33Z"/>
                <path class="cls-7" d="M205.3,170.04c-.06,0-.06.08,0,.09,2.49.7,3.99,2.77,5.13,4.96-.81-.8-1.83-1.18-2.91-.2-.06.05.01.14.08.12.95-.32,1.68-.23,2.42.48.53.5.93,1.17,1.33,1.77.14.2.51.04.4-.19,0-.02-.02-.04-.03-.05-.28-3.04-3.12-7.03-6.41-6.97Z"/>
              </g>
              <g>
                <path class="cls-9" d="M221.91,141.57c-2.38-.56-5.19-1.08-8.32-.91-3.13.18-12.62,2.69-14.58,5.04-1.96,2.35-.9,11.54-.72,12.88.18,1.34,2.25,9.26,5.51,10.66,3.26,1.4,1.04-12.28,4.8-17.65,3.76-5.36,13.31-10.03,13.31-10.03Z"/>
                <path class="cls-41" d="M221.92,141.57s-9.55,4.67-13.31,10.03c-3.77,5.36-1.54,19.05-4.81,17.65-1.44-.62-2.29-1.77-3.21-3.81-.12-4.1.36-10.58,2.89-15.47,2.38-4.58,7.36-7.59,12.97-9.29,2,.13,3.83.5,5.47.88Z"/>
                <g>
                  <path class="cls-17" d="M206.08,177.2c-.41-3.68,1.51-14.09,4.36-20.37,2.85-6.29,13.65-11.63,15.26-11.83,3.91-.49,5.44.45,5.98-.01.55-.46-3.97-2.64-5.17-3.09-1.21-.45-4.42-1.45-6.09-1.1-1.67.35-11.85,3.28-14.81,8.39-2.96,5.11-6.02,18.48-4.46,21.47.37.72,1.48,1.02,2,2.04.68,1.34,1.28,2.92,1.89,3.84.49.74,1.08.99,1.04.67Z"/>
                  <g>
                    <path class="cls-7" d="M210.87,154.16c-.99-.39-1.93-.83-2.85-1.38-.9-.54-1.82-1.16-2.57-1.9-.05-.05-.15.02-.09.08.72.86,1.48,1.62,2.43,2.22.91.57,1.98.99,3.04,1.19.12.02.16-.16.05-.2Z"/>
                    <path class="cls-7" d="M205.38,173.58c-.15-.24-.36-.44-.53-.67-.19-.26-.37-.54-.5-.84-.26-.57-.35-1.18-.74-1.69-.3-.4-.69-.73-1.07-1.05-.44-.37-.87-.76-.99-1.35-.02-.08-.14-.06-.12.02.2,1.11,1.08,1.75,1.73,2.59.42.53.53,1.21.84,1.8.27.5.69,1.12,1.24,1.34.08.03.19-.06.14-.15Z"/>
                    <path class="cls-7" d="M205.91,169.42c-.42-.35-.86-.65-1.25-1.05-.37-.38-.71-.79-1.03-1.22-.31-.42-.59-.86-.9-1.29-.36-.5-.78-.97-1.12-1.49-.04-.07-.14.01-.09.08.35.54.6,1.14.93,1.69.29.47.62.92.96,1.36.33.42.69.8,1.1,1.15.38.33.87.68,1.36.82.04.01.06-.03.03-.06Z"/>
                    <path class="cls-7" d="M206.58,165.63c-.87-.5-1.7-1.14-2.39-1.87-.68-.72-1.32-1.49-1.94-2.25-.04-.05-.14,0-.1.06.52.89,1.03,1.78,1.76,2.53.34.35.72.71,1.14.98.46.29.97.49,1.48.67.07.02.13-.07.06-.11Z"/>
                    <path class="cls-7" d="M207.4,161.96c-.46-.17-.79-.48-1.14-.8-.39-.35-.77-.71-1.14-1.08-.35-.36-.72-.7-1.07-1.06-.36-.36-.72-.73-.9-1.22-.02-.06-.13-.03-.12.03.12.5.38.93.68,1.34.33.45.68.88,1.08,1.27.39.38.81.75,1.25,1.08.38.29.83.57,1.32.59.09,0,.14-.13.04-.17Z"/>
                    <path class="cls-7" d="M207.64,157.46c-.4-.27-.79-.54-1.17-.84-.37-.3-.73-.62-1.09-.94-.37-.34-.75-.67-1.1-1.03-.06-.06-.14.01-.09.08.28.42.57.83.91,1.2.34.36.71.7,1.09,1.01.38.31.78.61,1.19.86.4.25.86.54,1.33.61.07.01.13-.09.08-.14-.33-.33-.77-.56-1.15-.82Z"/>
                    <path class="cls-7" d="M213.28,151.59c-.44-.38-.87-.75-1.34-1.09-.48-.34-.99-.65-1.51-.94-1.01-.56-2.06-1.05-3.17-1.38-.06-.02-.12.07-.06.11,1.99,1.16,4.03,2.23,6.01,3.41.07.04.13-.05.07-.1Z"/>
                    <path class="cls-7" d="M214.91,148.07c-.45-.37-.93-.69-1.45-.94-1.09-.54-2.26-.87-3.43-1.16-.07-.02-.12.08-.04.11,1.06.45,2.12.89,3.15,1.4.51.25,1.02.52,1.49.83.48.31.88.71,1.34,1.04.04.03.09-.01.07-.06-.25-.48-.72-.88-1.13-1.22Z"/>
                    <path class="cls-7" d="M217.67,146.09c-.42-.37-.87-.68-1.35-.96-.92-.52-1.9-.88-2.94-1.07-.07-.01-.09.09-.03.12.98.37,1.93.83,2.84,1.36.45.27.89.56,1.33.84.44.28.84.67,1.31.91.04.02.07-.03.05-.06-.32-.43-.8-.78-1.2-1.13Z"/>
                    <path class="cls-7" d="M219.53,143.88c-.44-.24-.89-.46-1.34-.67-.45-.21-.9-.42-1.39-.48-.07,0-.09.09-.03.12.85.45,1.7.93,2.54,1.4.79.45,1.39,1.1,2.07,1.69.03.03.08-.01.06-.05-.44-.85-1.06-1.55-1.9-2.01Z"/>
                    <path class="cls-7" d="M222.15,142.8c-.82-.56-1.74-.85-2.7-1.07-.07-.02-.1.1-.03.12.9.25,1.73.75,2.51,1.25.79.52,1.48,1.16,2.14,1.84.03.03.1,0,.07-.05-.47-.85-1.19-1.55-1.99-2.1Z"/>
                    <path class="cls-7" d="M226.02,143.77c-.12-.18-.27-.34-.41-.5-.29-.32-.64-.59-.99-.84-.72-.51-1.54-.86-2.35-1.21-.07-.03-.12.08-.04.11.79.33,1.54.77,2.23,1.28.34.25.66.53.96.82.15.14.28.3.42.46.13.15.24.34.39.46.04.03.11,0,.1-.06-.04-.18-.18-.37-.29-.53Z"/>
                    <path class="cls-7" d="M228.24,143.56c-.26-.25-.53-.48-.82-.69-.29-.22-.58-.41-.89-.59-.32-.18-.64-.35-.95-.54-.07-.05-.14.06-.06.11.32.17.62.4.91.62.27.21.55.42.82.64.27.21.55.42.82.64.27.22.53.48.83.66.05.03.1-.02.07-.07-.19-.29-.48-.53-.73-.77Z"/>
                  </g>
                </g>
              </g>
            </g>
          </g>
        </g>
      </g>
    </g>
  </g>
  <g id="Character_2" data-name="Character 2">
    <g>
      <g>
        <circle class="cls-14" cx="357" cy="75.53" r="58.98"/>
        <circle class="cls-26" cx="357" cy="75.53" r="66.62"/>
      </g>
      <g>
        <g>
          <path class="cls-7" d="M337.65,3.52s10.17-8.35,24.17.66c13.99,9.01,11.28,46.28,8.93,51.92,0,0-27,11.59-50.18.37,0,0,13.93-26.86,12.43-39.97-.87-7.6,4.66-12.98,4.66-12.98Z"/>
          <path class="cls-7" d="M331.53,26.6c-.09.25-.17.5-.26.74-1.19,3.12-2.65,6.13-4.37,8.99-1.65,2.72-3.46,5.36-5.82,7.52-.06.06-.16-.03-.1-.09,2.34-2.28,3.96-5.17,5.44-8.05,1.45-2.82,2.73-5.73,3.85-8.69,2.25-6.02,3.86-12.38,4.56-18.77.01-.13.23-.11.22.02-.03.9-.09,1.79-.16,2.69.07-.02.15.01.14.12-.54,6-1.26,11.88-3,17.67-1.72,5.7-4.34,11.04-7.49,16.07-1.77,2.82-3.69,5.54-5.78,8.12-.03.04-.09-.01-.06-.05,5.87-7.88,9.97-16.9,12.85-26.27Z"/>
          <path class="cls-7" d="M358.95,2.67c12.8,8.49,16.02,24.38,15.43,38.37-.18,4.29-.67,8.61-1.69,12.78-.02.08-.13.05-.12-.02,1.17-7.42,1.41-14.77.43-22.25-.91-6.93-2.54-14.12-6.27-20.22-2-3.28-4.62-6.29-7.88-8.46-.12-.08-.02-.27.1-.19Z"/>
        </g>
        <g>
          <g>
            <path class="cls-34" d="M352.49,65.76c-9.27,23.75-38.85,51.45-48.88,52.36-11.7,1.05-35.94-12.38-47.64-28.65-2.77-3.86,22.01-22.21,26.2-19.34,8.6,5.89,18.8,13.89,20.19,13.99,2.76.21,21.16-14.19,35.84-24.48,18.26-12.8,17.97-3.35,14.28,6.12Z"/>
            <g>
              <path class="cls-34" d="M259.55,93.78s-10.72-11.07-11.86-21.49c-.78-7.21-.04-26.34,17.31-39.3,4.11-3.07,12.16-4.53,7.26,2.93-3.48,5.3-7.29,7.61-8.75,11.06,0,0,10.45-.64,13.37,3.6,1.3,1.9,4.74,7.15,6.83,11.63,0,0-.85.72-2.06,1.47,0,0,2.35,4.22.72,11.38l-22.82,18.72Z"/>
              <g>
                <path class="cls-39" d="M285.15,25.56l11.89,37.78c.47,1.1-.04,2.05-1.14,2.11l-19.78,1.15c-1.1.06-2.39-.78-2.86-1.88l-11.89-37.78c-.48-1.1.04-2.05,1.14-2.11l19.78-1.15c1.11-.06,2.39.78,2.86,1.88Z"/>
                <path class="cls-30" d="M282.8,25.68l11.89,37.78c.48,1.1-.04,2.05-1.14,2.11l-19.78,1.15c-1.1.06-2.39-.78-2.86-1.88l-11.89-37.78c-.48-1.1.04-2.05,1.14-2.11l19.78-1.15c1.11-.06,2.39.78,2.86,1.88Z"/>
                <path class="cls-7" d="M277.48,27.75c.07.93.89,1.62,1.81,1.54.93-.07,1.62-.89,1.54-1.81-.07-.93-.89-1.62-1.81-1.54-.93.07-1.62.89-1.54,1.81Z"/>
              </g>
              <g>
                <path class="cls-34" d="M248.74,62.03c2.18-3.12,6.9-9.65,12.62-13.65,6.35-4.44,19.79-11.29,23.02-6.56,2.37,3.46-2.53,6.53-2.53,6.53,0,0,6.15-1.66,7.61,1.94,1.33,3.28-2.61,5.42-2.61,5.42,0,0,3.9-.36,4.57,3.04.81,4.09-7.51,4.19-10.28,9.04-.62,1.09-32.41-5.76-32.41-5.76Z"/>
                <path class="cls-7" d="M264.93,55.88c2.53-2.6,9.78-7.02,16.77-7.6.16-.01.25.1.11.14-7.57,2.27-14.14,5.84-16.84,7.52-.04.02-.07-.03-.04-.06Z"/>
                <path class="cls-7" d="M269.6,62.16c2.41-2.02,10.09-6.24,17.2-6.59.16,0,.25.11.1.15-8,2.05-14.47,4.98-17.26,6.5-.04.02-.07-.04-.04-.06Z"/>
              </g>
              <path class="cls-7" d="M282.49,66.1c-.03,2.3-.06,4.53-.27,6.76-.1,1.11-.27,2.2-.48,3.3-.23,1.09-.54,2.16-.9,3.26,1.47-1.81,2.14-4.17,2.37-6.46.09-1.16.1-2.32-.02-3.47-.11-1.15-.32-2.29-.71-3.38Z"/>
            </g>
          </g>
          <g>
            <path class="cls-21" d="M339.92,90.34l-18.27-20.41s14.53-12.45,25.05-17.16c10.53-4.71,12.01,2.08,7.38,12.32-4.63,10.24-14.17,25.25-14.17,25.25Z"/>
            <path class="cls-23" d="M339.92,90.34l-18.27-20.41s14.53-12.45,25.05-17.16c10.53-4.71,12.01,2.08,7.38,12.32-4.63,10.24-14.17,25.25-14.17,25.25Z"/>
            <path class="cls-41" d="M326.51,75.34l13.42,15s9.54-15.01,14.17-25.25c3.47-7.7,3.51-13.45-1.18-13.82l-26.41,24.07Z"/>
            <path class="cls-7" d="M326.88,66.83c3.09,2.91,11.24,11.05,15.81,17.07.03.04-.1.16-.14.13-4.59-4.4-13.05-13.84-15.87-17.01-.05-.06.14-.24.19-.19Z"/>
          </g>
        </g>
        <path class="cls-4" d="M395.05,120.59c-10.27,8.7-23.55,13.93-38.06,13.93-12.34,0-23.81-3.79-33.28-10.28,2.86-14.66,11.43-62.56,20.82-72.13,3.76-3.83,10.88-3.64,15.12-2.21,3.3,1.12,8.84,2.78,19.92,24.49,5.19,10.19,11.37,30.95,15.48,46.2Z"/>
        <g>
          <g>
            <path class="cls-34" d="M346.37,63.51c4.5.54,11.25-7.01,13.61-12.77.16-.4-.86-4.25-1.87-8.99-.6-2.88-1.21-6.1-1.54-9.08-.07-.61-18.17,6.66-18.17,6.66,0,0,2.55,6.04,3.1,11.23.04.43.04.84.01,1.24,0,.06,0,.13,0,.21-.11,2.36.52,10.98,4.86,11.5Z"/>
            <path class="cls-7" d="M355.42,32.88c-.29,5.13-2.05,17.66-11.99,19.01-.69.1-1.33.13-1.92.11-.01-.08,0-.15,0-.21.03-.4.03-.8,0-1.23-.56-5.21-3.11-11.24-3.11-11.24,0,0,13.06-5.24,17.03-6.45Z"/>
          </g>
          <g>
            <path class="cls-34" d="M358.9,12.55c2,6.68-1.63,25.92-6.4,30.18-6.91,6.19-18.17,6.72-23.41-1.58-5.08-8.04.09-33.03,5.41-36.9,7.83-5.7,21.45-1.57,24.4,8.29Z"/>
            <g>
              <path class="cls-7" d="M343.96,20.16c-.58-.15-1.09-.38-1.65-.59-.63-.23-1.15-.35-1.57-.92-.22-.3-.13-.85.15-1.09.64-.56,1.48-.47,2.25-.22.83.27,1.41.69,1.88,1.43.46.71-.31,1.59-1.07,1.39Z"/>
              <path class="cls-7" d="M330.43,17.95c.6.01,1.15-.08,1.74-.13.67-.06,1.21-.03,1.75-.47.29-.23.35-.78.15-1.09-.47-.71-1.3-.85-2.11-.81-.88.04-1.54.29-2.2.87-.63.56-.12,1.61.66,1.63Z"/>
              <path class="cls-7" d="M339.95,36.65c-.37.25-.75.61-1.23.56-.46-.04-.95-.34-1.34-.58-.04-.02-.09.01-.07.06.25.56.9,1,1.52,1,.61,0,.99-.45,1.23-.96.03-.07-.06-.12-.11-.08Z"/>
              <path class="cls-7" d="M339.29,32.52c-.93.99-2.11,1.41-3.31,1.43-.53,0-1.08-.07-1.6-.22-.1-.02-.21-.05-.3-.09-.09-.03-.18-.06-.28-.1-.15-.05-.21-.19-.21-.34h0c0-.06.02-.09.04-.14h0s.02-.12.02-.12c.15-1,.53-2.51.53-2.51-.4.12-2.41.61-2.29.1,1.05-4.27,2.21-9.02,4.15-13.06.06-.14.27-.06.23.08-.84,4.15-2.41,8.12-3.32,12.27.64-.12,1.68-.36,2.2-.25.13.07-.77,2.89-.81,3.35,0,0,0,.02,0,.05,1.64.52,3,.24,4.83-.59.11-.06.2.05.1.14Z"/>
              <g>
                <path class="cls-7" d="M335.06,33.33s.67,1.36,1.8,2.01c.42.24.89.39,1.42.35,1.09-.08,1.28-1.03,1.24-1.88-.03-.7-.24-1.33-.24-1.33,0,0-1.77,1.14-4.22.85Z"/>
                <path class="cls-36" d="M336.87,35.34c.42.24.89.39,1.42.35,1.09-.08,1.28-1.03,1.24-1.88-1.13-.09-2.37.46-2.66,1.53Z"/>
              </g>
              <path class="cls-7" d="M330.08,22.27c.13-.28.34-.56.64-.76.3-.21.72-.25,1.07-.16.37.09.68.42.8.75.11.34.14.67.1.98-.02.2-.07.39-.12.58-.12.4-.3.78-.58,1.08.1-.29.17-.58.2-.87.04-.28.05-.54.04-.81-.02-.55-.19-1.06-.6-1.14-.42-.13-.83.12-1.14.58-.31.45-.55.98-.78,1.53,0-.6.1-1.2.38-1.77Z"/>
              <path class="cls-7" d="M340.05,24.34c.09-.3.26-.6.54-.84.27-.25.68-.34,1.04-.3.37.04.73.32.89.64.16.32.23.64.23.96,0,.2-.02.4-.04.59-.06.41-.2.81-.44,1.15.06-.3.09-.6.08-.89,0-.28-.02-.54-.06-.81-.09-.54-.33-1.02-.75-1.05-.44-.07-.81.23-1.06.73-.25.49-.41,1.05-.57,1.62-.09-.59-.06-1.2.14-1.8Z"/>
            </g>
            <g>
              <path class="cls-7" d="M355.1,30.47c-1.04-1.04-2.03-7.55-2.03-7.55,0,0-11.91-5.46-12.75-16.56,0,0-5.73,6.93-10.92,8.08,0,0,.83-11.86,11.37-12.84,0,0,9.96-3.66,18.14,6.55,8.17,10.21-.7,22.72-.7,22.72l-3.12-.41Z"/>
              <path class="cls-7" d="M340.75,4.3c-.6,1.74-.35,3.78.05,5.55.41,1.8,1.14,3.55,2.04,5.15.92,1.64,2.02,3.24,3.43,4.49,1.61,1.43,3.61,2.39,5.56,3.28.06.03.01.14-.05.11-2.07-.86-4.14-1.76-5.92-3.15-1.55-1.21-2.77-2.82-3.83-4.47-1.07-1.68-1.88-3.5-2.18-5.48-.29-1.94.11-3.7.69-5.54.04-.14.26-.07.21.06Z"/>
            </g>
            <g>
              <path class="cls-34" d="M353.68,28s4.51-6.11,7.3-4.49c2.79,1.62-.72,10.57-4.07,11.71-3.35,1.15-4.47-1.93-4.47-1.93l1.24-5.3Z"/>
              <path class="cls-7" d="M359.91,26.05c.05,0,.06.07.02.09-2.35.88-3.63,3.01-4.54,5.22.71-.84,1.67-1.29,2.8-.44.06.04,0,.14-.07.12-.95-.23-1.64-.08-2.3.67-.47.53-.8,1.2-1.14,1.82-.11.21-.49.08-.4-.15,0-.02.01-.04.02-.05.02-2.97,2.43-7.06,5.62-7.27Z"/>
            </g>
            <path class="cls-7" d="M337.79,39.14s1.12.69,2.56-.13c0,0,.36,1.08-.32,2.27l-.06-.79s-.15,1.62-.88,2.49c0,0-.67-.76-.72-1.6l.05.96s-1.12-1.33-.64-3.2Z"/>
          </g>
        </g>
        <g>
          <g>
            <path class="cls-34" d="M369.12,71.74c-5.06,30.95-17.66,51.06-23.56,52.03-15.88,2.62-42.73-23.35-50.74-29.44-3.24-2.46,23.17-24.56,26.29-21.54,7.36,7.13,17.25,18.32,17.77,18.44,1.02.24,4.78-6.79,17.46-26.7,10.26-16.11,14.84-5.44,12.78,7.21Z"/>
            <g>
              <path class="cls-34" d="M280.12,42.95c-2.19,3.34,6.51,8.06,6.51,8.06,0,0-2.76-.07-4.71,1.74-2.23,2.07.03,6.47.03,6.47,0,0-2.81.51-4.67,2.62-1.93,2.19-.28,6.96-.28,6.96,0,0-2.3,1.92-2.66,4.9-1.02,8.45,17.46,20.55,23.45,22.89l24.21-21.87s-8.98-20.08-16.3-25.27c-4.06-2.88-22.23-11.59-25.58-6.48Z"/>
              <g>
                <path class="cls-7" d="M286.76,50.96c5.21,1.57,10.03,4.39,14.66,7.15.1.06,0,.22-.1.16-4.57-2.81-10-4.46-14.67-7.08-.13-.07-.04-.28.1-.24Z"/>
                <path class="cls-7" d="M282.3,58.95c1.17.39,2.2,1.17,3.22,1.84,1.09.73,2.17,1.48,3.24,2.25,2.14,1.53,4.24,3.12,6.3,4.76.09.07,0,.23-.1.16-2.13-1.52-4.29-3.02-6.49-4.45-1.1-.72-2.21-1.43-3.32-2.13-1.03-.65-2.18-1.25-3.05-2.12-.13-.13.01-.37.19-.31Z"/>
                <path class="cls-7" d="M277.09,68.86c1.03.3,1.96,1.18,2.81,1.81.96.72,1.92,1.43,2.89,2.14,1.94,1.42,3.87,2.83,5.86,4.18.1.07,0,.23-.1.16-2.02-1.36-4.06-2.69-6.07-4.07-.99-.68-1.97-1.36-2.95-2.05-.83-.58-1.94-1.22-2.51-2.09-.03-.05.02-.11.08-.09Z"/>
              </g>
            </g>
            <path class="cls-7" d="M316.08,111.48c-3.21-2.27-6.37-4.63-9.49-7.03-1.56-1.2-3.1-2.44-4.61-3.7-1.51-1.26-3.02-2.54-4.44-3.92l.1.07c-3.03-1.45-5.95-3.08-8.77-4.89-2.82-1.81-5.54-3.78-8.05-6.03-2.47-2.26-4.85-4.79-6.19-8.01-.65-1.6-.95-3.4-.67-5.15.3-1.76,1.27-3.43,2.92-4.38l-.22.58c-.39-1.08-.61-2.16-.71-3.28-.07-1.12,0-2.3.52-3.38.25-.55.62-1.02,1.01-1.43.39-.42.85-.78,1.34-1.08.99-.6,2.08-.95,3.28-1l-.34.63c-.56-.94-.97-1.91-1.18-2.99-.21-1.05-.13-2.25.5-3.22.62-.94,1.57-1.57,2.56-1.96,1-.38,2.03-.58,3.1-.63l-.12.52c-1.17-.64-2.29-1.34-3.34-2.15-1.05-.81-2.06-1.69-2.83-2.8-.38-.55-.68-1.18-.75-1.87-.07-.69.17-1.39.62-1.89.93-1.05,2.41-1.2,3.68-1.11-1.28-.03-2.72.21-3.55,1.22-.41.49-.6,1.14-.52,1.76.09.62.39,1.2.77,1.72.77,1.03,1.78,1.87,2.84,2.62,1.06.74,2.18,1.43,3.33,2.02l.89.46-1.01.06c-.97.06-1.98.28-2.88.65-.9.38-1.72.96-2.22,1.76-.48.79-.54,1.78-.34,2.72.2.94.61,1.88,1.12,2.68l.37.58-.7.04c-.96.06-1.99.39-2.83.92-.43.27-.83.58-1.17.95-.35.37-.65.76-.85,1.2-.42.88-.49,1.92-.42,2.94.09,1.02.32,2.07.67,3.02l.14.38-.36.21c-.6.34-1.18.93-1.59,1.56-.4.65-.67,1.38-.8,2.15-.23,1.54.03,3.15.64,4.62,1.23,2.97,3.5,5.47,5.9,7.69,2.44,2.22,5.11,4.18,7.89,5.99,2.78,1.79,5.65,3.48,8.6,4.97l.06.03.04.04c2.77,2.75,5.81,5.27,8.83,7.78,3.03,2.51,6.12,4.95,9.21,7.38Z"/>
            <path class="cls-7" d="M321.12,72.79c1.02.84,1.99,1.73,2.95,2.63.96.9,1.88,1.83,2.8,2.77.91.95,1.81,1.9,2.68,2.89.87.99,1.73,1.98,2.53,3.03-1.03-.84-1.99-1.73-2.95-2.63-.96-.9-1.88-1.83-2.8-2.77-.91-.95-1.81-1.9-2.68-2.89-.87-.99-1.73-1.98-2.53-3.03Z"/>
          </g>
          <g>
            <path class="cls-21" d="M366.01,96.9l-24.36-12.51s9.1-16.83,17.25-24.99c8.14-8.17,11.96-2.36,11.3,8.86-.65,11.22-4.19,28.65-4.19,28.65Z"/>
            <path class="cls-31" d="M366.01,96.9l-24.36-12.51s9.1-16.83,17.25-24.99c8.14-8.17,11.96-2.36,11.3,8.86-.65,11.22-4.19,28.65-4.19,28.65Z"/>
            <path class="cls-7" d="M345.99,79.66c3.93,1.61,14.45,6.29,20.87,10.28.04.02-.04.19-.08.17-5.86-2.46-17.14-8.24-20.91-10.2-.07-.04.04-.28.11-.25Z"/>
          </g>
        </g>
      </g>
      <line class="cls-26" x1="265.6" y1="181.2" x2="316.08" y2="128.12"/>
    </g>
  </g>
  <g id="Character_1" data-name="Character 1">
    <g>
      <g>
        <circle class="cls-14" cx="78.07" cy="148.09" r="58.98" transform="translate(-84.25 189.06) rotate(-76.37)"/>
        <circle class="cls-26" cx="78.07" cy="148.09" r="66.62" transform="translate(-80.8 200.89) rotate(-80.59)"/>
      </g>
      <g>
        <g>
          <g>
            <path class="cls-7" d="M48.98,71.85s9.73-10.61,22.39-6.7c15.79,4.88,16.34,47.75,18.2,55.62,1.85,7.87,8.64,9.88.94,17.08-7.7,7.2-18.58,9.59-29.7,9.38-11.12-.21-19.54-4.9-21.26-9.81-1.05-3.01,1.31-5.95,1.69-10.98.22-2.96-7.29-52.7,7.74-54.58Z"/>
            <path class="cls-7" d="M38.68,131.33c.08-3.4.94-6.64.85-10.08-.09-3.37-.97-23.05-1.32-26.39-.89-8.57-.26-21.84,10.81-22.75.22-.02.25.29.04.33-13.6,2.56-10.14,21.79-8.95,40.9.27,4.28.18,9.94-.42,14.2-.84,5.96-.05,11.13,4.76,15.25.11.09-.03.26-.13.17-3.57-2.87-5.74-6.99-5.63-11.62Z"/>
            <path class="cls-7" d="M51.14,71.48c5.56-4.79,12.2-8.89,19.87-6.81,6.64,1.81,11.06,7.69,13.38,13.77,3.23,8.48,3.37,34.21,6.92,42.6,1.25,2.96,4.15,6.02,4.09,9.41-.06,3.02-2.38,4.11-5,4.84-.14.04-.23-.16-.09-.21,6.35-2.02,4.31-6.35,2.05-10.5-1.59-2.91-2.71-5.95-3.53-9.15-1.63-6.37-2.47-29.35-4.59-35.6-2.06-6.07-5.84-12.07-12.23-14.4-8-2.92-14.74,1.4-20.77,6.16-.07.06-.15-.05-.08-.11Z"/>
          </g>
          <g>
            <path class="cls-7" d="M49.83,71.76c-2.74,2.15-11.17,1.11-14.38-3.28-4.41-6.05,3.26-16.29,10.91-12.75,7.66,3.55,5.58,14.37,3.47,16.03Z"/>
            <path class="cls-7" d="M37.09,57.73c-1.62,1.89-2.91,4.09-3.4,6.41-.22,1.16-.19,2.34.24,3.38.42,1.04,1.17,1.93,2.12,2.61.92.71,2.04,1.21,3.16,1.66,1.11.47,2.29.75,3.48.95,2.37.34,4.9.11,7.16-.98-2.02,1.52-4.69,2.14-7.26,1.93-1.29-.1-2.56-.38-3.78-.82-1.2-.46-2.4-.96-3.47-1.77-1.06-.79-2-1.87-2.46-3.18-.46-1.3-.44-2.73-.08-3.99.72-2.54,2.37-4.63,4.31-6.2Z"/>
          </g>
        </g>
        <g>
          <path class="cls-21" d="M8.59,204.55c.03-.19.06-.38.1-.57-.05.24-.09.47-.12.71,0-.05,0-.09.02-.14Z"/>
          <path class="cls-21" d="M40.39,210.17c-.1.06-.21.12-.33.18l-.05-.08h0c.11-.04.23-.06.34-.08.02,0,.03,0,.05,0Z"/>
        </g>
        <g>
          <g>
            <path class="cls-11" d="M53.55,125.52c-19.9,20.17-44.94,62.6-40.27,71.21,5.2,9.58,32.91-18.7,32.8-20.35-.08-1.25,9.67-27.02,17.06-45.77,7.39-18.73-4.68-10.08-9.6-5.09Z"/>
            <path class="cls-21" d="M46.27,176.41c.85-2.76,14.11-36.74,17.9-47.49,3.79-10.75.28-14.07-10.55-4.23s-34.56,42.73-39.98,60.18c-5.22,16.81,3.44,16.81,14.86,9.06,9.35-6.34,17.77-17.53,17.77-17.53Z"/>
            <path class="cls-44" d="M46.27,176.41c.85-2.76,14.11-36.74,17.9-47.49,3.79-10.75.28-14.07-10.55-4.23s-34.56,42.73-39.98,60.18c-5.22,16.81,3.44,16.81,14.86,9.06,9.35-6.34,17.77-17.53,17.77-17.53Z"/>
          </g>
          <g>
            <path class="cls-21" d="M110.35,196.86c-10.18,6.17-22.13,9.73-34.92,9.73-13.65,0-26.33-4.05-36.94-11.03l.15-.89,2.86-21.15s-6.72-11.75-2.81-20.17c1.97-4.26,19.25-30.81,26.53-36.09,6.82-4.95,16.73.35,20.42,4.23,13.03,13.73,19.75,39.87,24.7,75.35Z"/>
            <path class="cls-27" d="M110.35,196.86c-10.18,6.17-22.13,9.73-34.92,9.73-13.65,0-26.33-4.05-36.94-11.03l.15-.89,2.86-21.15s-6.72-11.75-2.81-20.17c1.97-4.26,19.25-30.81,26.53-36.09,6.82-4.95,16.73.35,20.42,4.23,13.03,13.73,19.75,39.87,24.7,75.35Z"/>
            <g>
              <path class="cls-7" d="M38.66,194.69c.35-3.54.72-7.08,1.14-10.61.43-3.53.8-7.07,1.28-10.59l.09.32c-2.05-2.92-3.32-6.26-3.91-9.73-.29-1.74-.34-3.5-.23-5.27.15-1.8.69-3.49,1.31-5.12,1.27-3.27,3.04-6.27,4.92-9.17,1.89-2.9,3.98-5.66,6.21-8.29-2.03,2.79-3.92,5.68-5.7,8.61-1.77,2.94-3.38,5.99-4.6,9.17-.58,1.59-1.07,3.23-1.19,4.88-.1,1.68,0,3.37.25,5.04.52,3.32,1.74,6.61,3.63,9.35l.11.16-.02.17c-.48,3.52-1.05,7.03-1.57,10.55-.53,3.52-1.11,7.03-1.71,10.53Z"/>
              <path class="cls-7" d="M43.71,144.57c0-.48.11-.95.24-1.4.12-.46.3-.9.48-1.33.19-.43.39-.86.64-1.26.24-.41.49-.81.79-1.18-.25.92-.61,1.78-.97,2.64-.37.85-.77,1.68-1.18,2.54Z"/>
            </g>
            <g>
              <path class="cls-7" d="M53.29,170.79c3.84.05,7.68.85,11.36,1.89,3.71,1.05,11.9,4.3,13.96,5.1.05.02.03.1-.02.08-3.74-.93-4.25-1.14-7.89-2.38-3.64-1.24-7.3-2.35-11.02-3.32-2.1-.55-4.24-.87-6.39-1.15-.14-.02-.14-.23,0-.22Z"/>
              <path class="cls-7" d="M46.52,172.75c3.98-.38,8.06.08,11.93,1.06.05.01.04.09-.01.08-1.98-.24-3.95-.47-5.93-.63-1.99-.17-3.99-.27-5.99-.4-.07,0-.07-.1,0-.11Z"/>
            </g>
          </g>
          <g>
            <g>
              <path class="cls-11" d="M13.28,196.73c4.48,6.41,16.67,7.63,47.09,13.59,4.21.82,18.02-27.31,13.57-28.42-5.6-1.4-27.65-5.62-29.3-5.72-13.93-.88-34.39,16.21-31.35,20.56Z"/>
              <g>
                <path class="cls-11" d="M67.85,180.5s12.88,1.95,19.34,5.07c8.64,4.18,14.38,11.34,16.6,14.48,4.64,6.57,11.33,25.66,6.17,28.55-4.67,2.61-10.52-17.25-10.52-17.25,0,0,9.3,19.27,3.1,21.38-6.21,2.11-11.68-21.33-11.68-21.33,0,0,9.12,20.01,2.37,21.17-5.1.88-11.25-20.07-11.25-20.07,0,0,7.72,17.25,2.51,18.38-5.75,1.25-12.64-17.73-12.64-17.73-13.71.65-20.5-4.65-24.88-9-1.06-1.05,20.89-23.64,20.89-23.64Z"/>
                <g>
                  <path class="cls-7" d="M96.65,204.48c1.17,2.22,2.38,4.47,3.35,6.79.97,2.32,1.87,4.68,2.62,7.08,1.85,5.89,2.08,9.86,2.04,9.62-.98-5.77-4.33-14.13-5.3-16.45-.97-2.32-1.83-4.68-2.8-7-.02-.06.06-.09.09-.03Z"/>
                  <path class="cls-7" d="M88.21,207.84c1.38,2.9,2.85,5.74,4.1,8.7,1.24,2.95,2.16,5.86,3.2,8.89.08.23-.07.2-.16-.03-1.16-2.99-2.46-5.66-3.65-8.63-1.19-2.96-2.27-5.99-3.56-8.91-.02-.05.05-.07.07-.03Z"/>
                  <path class="cls-7" d="M80.44,209.42c2.33,4.33,3.86,9.09,5.25,13.79.07.23-.12.17-.21-.07-1.66-4.62-2.93-8.25-5.2-13.64-.04-.08.1-.17.15-.08Z"/>
                </g>
              </g>
            </g>
            <g>
              <path class="cls-21" d="M70.54,180.5l-26.65,29.67s-26.94-6.19-30.91-13.1c-2.61-4.55,17.67-22.97,32.99-20.83l24.57,4.25Z"/>
              <path class="cls-46" d="M70.54,180.5l-26.65,29.67s-26.94-6.19-30.91-13.1c-2.61-4.55,17.67-22.97,32.99-20.83l24.57,4.25Z"/>
              <g>
                <path class="cls-7" d="M27.7,181.08c2.47-1.79,9.42-5.96,18.29-4.85.08,0,.08.14,0,.13-6.69-.19-15.71,3.31-18.23,4.83-.07.04-.12-.07-.06-.11Z"/>
                <path class="cls-7" d="M36.61,205.21c2.76-3.42,5.69-6.69,8.63-9.95,2.95-3.26,5.89-6.53,8.91-9.72,1.71-1.8,3.41-3.62,5.18-5.36.05-.05.13.02.09.07-2.75,3.41-5.67,6.7-8.59,9.97-2.92,3.28-5.89,6.54-8.88,9.76-1.69,1.82-3.41,3.61-5.18,5.36-.09.09-.25-.04-.17-.14Z"/>
                <path class="cls-7" d="M70.59,180.12c-1.63-.54-3.31-.82-4.99-1.14-1.68-.32-3.37-.6-5.06-.87-3.36-.54-10.42-2.06-16.62-2.05-.07,0,.28.33.35.33,2.95-.16,24.12,4.05,25.86,4.17-.07.11-.13.23-.19.35-.04.09.05.2.14.13.22-.15.37-.33.58-.49.17-.13.14-.38-.07-.45Z"/>
              </g>
            </g>
          </g>
          <g>
            <g>
              <path class="cls-21" d="M90.48,123.36c25.46,22.21,45.49,49.65,44.19,56.51-2.42,12.77-19.24,13.57-21.79,10.81-10.31-11.17-21.19-32.81-32.98-56.96-10.53-21.58,2.19-17.67,10.58-10.36Z"/>
              <path class="cls-35" d="M90.48,123.36c25.46,22.21,45.49,49.65,44.19,56.51-2.42,12.77-19.24,13.57-21.79,10.81-10.31-11.17-21.19-32.81-32.98-56.96-10.53-21.58,2.19-17.67,10.58-10.36Z"/>
              <path class="cls-7" d="M108.68,185.69c-1.87-2.9-3.62-5.88-5.41-8.83-1.78-2.96-3.55-5.92-5.28-8.91-3.43-5.9-6.61-11.93-9.68-18.02-1.74-3.45-3.5-6.88-5.16-10.37-.05-.11-.24-.03-.19.09,1.6,4.05,3.32,8.05,5.16,11.99-.03-.04-.07-.09-.1-.13-.41-.56-.83-1.11-1.23-1.67-.8-1.11-1.55-2.25-2.26-3.41-.06-.1-.2,0-.15.09.83,1.57,1.75,3.11,2.79,4.55.5.69,1.01,1.39,1.59,2.01.01.02.04.03.05.05.84,1.75,1.7,3.49,2.61,5.22,3.2,6.11,6.59,12.14,10.39,17.91,1.07,1.62,2.14,3.24,3.26,4.83,1.12,1.59,2.32,3.13,3.47,4.7.06.08.19,0,.13-.08Z"/>
            </g>
            <g>
              <g>
                <path class="cls-11" d="M117.1,188.2c-4.82-6.93-2.38-20.7,2.92-53.73.73-4.57,35.43-4.93,34.9,0-.67,6.2-6.85,30.7-8.46,34.3-7.89,17.63-26.09,24.14-29.36,19.44Z"/>
                <g>
                  <path class="cls-11" d="M156.05,120.75c-1.34-10.51-3.3-13,.28-22.47,2.35-6.21-.61-10.38-5.78-5.8-8.45,7.5-9.57,21.42-8.57,26.36l14.07,1.91Z"/>
                  <g>
                    <path class="cls-39" d="M122.48,82.14l-12.59,42.32c-.51,1.24.08,2.28,1.31,2.33l22.07.93c1.23.05,2.65-.91,3.16-2.15l12.58-42.31c.51-1.24-.08-2.28-1.31-2.33l-22.07-.93c-1.23-.05-2.65.91-3.16,2.15Z"/>
                    <path class="cls-37" d="M125.1,82.23l-12.58,42.32c-.51,1.24.08,2.28,1.31,2.33l22.07.93c1.23.05,2.65-.91,3.16-2.15l12.59-42.32c.51-1.24-.08-2.28-1.31-2.33l-22.07-.93c-1.23-.05-2.65.91-3.16,2.15Z"/>
                    <path class="cls-7" d="M131.07,84.44c-.07,1.03-.96,1.82-1.99,1.75-1.03-.07-1.82-.96-1.75-1.99.07-1.03.96-1.82,1.99-1.75,1.03.07,1.82.96,1.75,1.99Z"/>
                  </g>
                  <path class="cls-11" d="M150.61,150.45s6.29-13.65,5.97-24.99c-.22-7.84-2.6-24.85-23.1-36.18-4.86-2.69-13.69-3.07-7.35,4.2,4.51,5.17,8.93,7.08,11,10.56,0,0-11.29.85-13.79,5.82-1.12,2.22-4.03,8.36-5.61,13.47,0,0,1.02.64,2.43,1.28,0,0-1.9,4.87.9,12.3l29.55,13.53Z"/>
                  <path class="cls-11" d="M155.17,118.01c-2.79-3.02-8.81-9.32-15.53-12.77-7.46-3.82-22.87-9.18-25.64-3.64-2.03,4.06,3.67,6.62,3.67,6.62,0,0-6.83-.87-7.86,3.2-.94,3.71,3.59,5.43,3.59,5.43,0,0-4.24.18-4.45,3.93-.26,4.51,8.66,3.38,12.34,8.17.83,1.08,33.87-10.94,33.87-10.94Z"/>
                  <g>
                    <path class="cls-7" d="M136.91,113.8c-3.09-2.41-11.51-6.08-19.09-5.68-.17,0-.26.14-.1.17,8.44,1.32,16.01,4.17,19.15,5.58.04.02.07-.04.04-.07Z"/>
                    <path class="cls-7" d="M132.83,121.22c-2.88-1.81-11.73-5.2-19.4-4.53-.17.02-.25.16-.09.17,8.88,1.02,16.23,3.21,19.45,4.42.04.02.07-.05.03-.07Z"/>
                  </g>
                </g>
              </g>
              <g>
                <path class="cls-21" d="M155.48,145.66l-40.24,11.41s-8.03,26.38-2.92,33c5.45,7.07,30.79-3.89,35.83-19.3l7.33-25.1Z"/>
                <path class="cls-40" d="M155.48,145.66l-40.24,11.41s-8.03,26.38-2.92,33c5.45,7.07,30.79-3.89,35.83-19.3l7.33-25.1Z"/>
                <g>
                  <path class="cls-7" d="M116.56,166.22c4.49-1.02,8.92-2.27,13.35-3.54,4.43-1.27,8.87-2.53,13.27-3.91,2.49-.78,4.98-1.55,7.44-2.41.06-.02.04-.14-.03-.12-4.48,1.01-8.93,2.25-13.36,3.49-4.44,1.24-8.87,2.53-13.29,3.86-2.5.75-4.98,1.55-7.44,2.41-.12.04-.08.26.05.23Z"/>
                  <path class="cls-7" d="M116.67,156.63c-.63.07-1.25.2-1.87.31-.1.02-.17.11-.19.2-.69,2.34-1.18,4.76-1.66,7.14-.48,2.36-.9,4.72-1.3,7.1-.21,1.28-.4,2.56-.54,3.84-.76,1.57-1.26,3.22-1.39,4.97,0,.09.14.1.15.02.19-1.53.59-3.05,1.19-4.47-.33,3.14-.37,6.28.25,9.42,0,.02.03.01.03,0-.79-4.65.38-9.49,1.14-14.06.38-2.29.82-4.57,1.26-6.85.45-2.27.98-4.53,1.4-6.81.53-.2,1.07-.4,1.58-.64.07-.03.03-.16-.05-.15Z"/>
                </g>
              </g>
            </g>
          </g>
          <path class="cls-11" d="M54.03,124.32s4.22,10.75,11.88,10.75c9.26,0,22.47-13.42,22.47-13.42,0,0-8.43-7.97-19.26-6.39-9.14,1.34-15.09,9.05-15.09,9.05Z"/>
          <g>
            <g>
              <path class="cls-11" d="M77.66,116.11c-.21,1.33-5.82,10.26-11.81,10.42-1.95.05-2.69-10.59-2.69-10.59l-.23-.77-3.27-10.82,12.31-9.24,1.79-1.23s.7,3.02,1.53,6.79c.04.17.08.35.12.54.05.21.1.41.14.61.13.56.26,1.13.38,1.71.09.44.19.86.27,1.32.09.46.17.91.27,1.37.82,4.57,1.27,9.33,1.19,9.89Z"/>
              <path class="cls-7" d="M77.55,114.09c-8.32,1.49-13.14-.47-15.63-2.23l-2.26-7.51,12.32-9.23,1.78-1.23s.7,3.01,1.53,6.78c.04.17.08.35.12.54.05.21.11.41.15.61.13.56.26,1.13.38,1.71.09.43.18.86.26,1.32.1.46.18.91.27,1.37.53,2.93.9,5.94,1.08,7.87Z"/>
            </g>
            <g>
              <path class="cls-11" d="M83.6,86.6c3.75,19.48-7.5,23.92-11.7,24.72-3.81.73-16.89,2.73-22.63-16.26-5.74-18.99,2.13-26.89,10.77-29.01,8.63-2.13,19.82,1.07,23.56,20.55Z"/>
              <g>
                <path class="cls-7" d="M79.92,82.88c-.47,0-.9-.06-1.37-.1-.52-.04-.95-.02-1.37-.36-.23-.18-.27-.61-.12-.85.37-.56,1.02-.67,1.65-.64.69.03,1.21.23,1.72.68.5.44.1,1.26-.52,1.28Z"/>
                <path class="cls-7" d="M66.52,85.87c.46-.11.86-.29,1.3-.44.5-.17.91-.26,1.24-.7.18-.24.11-.66-.1-.85-.5-.45-1.16-.39-1.76-.2-.66.2-1.11.53-1.49,1.1-.37.55.22,1.25.82,1.1Z"/>
                <g>
                  <g>
                    <path class="cls-7" d="M70.2,89.48s-.1.08-.09.13c.24,1.33.28,2.89-.86,3.51-.04.02-.02.09.02.07,1.45-.42,1.36-2.5.93-3.72Z"/>
                    <path class="cls-7" d="M68.8,88.26c-2.17.15-1.72,4.48.29,4.35,1.98-.13,1.53-4.47-.29-4.35Z"/>
                  </g>
                  <path class="cls-7" d="M67.98,88.58c-.35.28-.68.76-1.13.85-.52.11-.97-.3-1.36-.7-.04-.04-.07,0-.07.06.07.83.48,1.65,1.39,1.68.82.03,1.33-.77,1.45-1.63.02-.16-.14-.37-.28-.26Z"/>
                </g>
                <g>
                  <g>
                    <path class="cls-7" d="M78.01,88.13c0-.05.11.05.12.11.11,1.35.46,2.87,1.73,3.18.04,0,.04.08,0,.08-1.5-.04-1.95-2.07-1.84-3.36Z"/>
                    <path class="cls-7" d="M79.04,86.59c2.14-.41,2.8,3.9.82,4.28-1.95.37-2.61-3.94-.82-4.28Z"/>
                  </g>
                  <path class="cls-7" d="M79.99,86.74c.38.18.78.54,1.19.5.48-.04.75-.56.99-1.05.02-.05.06-.02.07.04.15.82,0,1.72-.76,2-.7.26-1.34-.37-1.66-1.16-.06-.15.02-.4.17-.32Z"/>
                </g>
                <path class="cls-7" d="M71.75,99.93c.34.3.69.71,1.18.72.47.01,1.01-.23,1.43-.42.04-.02.09.02.06.07-.32.54-1.04.91-1.67.83-.62-.07-.95-.58-1.13-1.13-.03-.08.08-.11.13-.07Z"/>
                <path class="cls-7" d="M76.8,94.43s.51,1.97.62,2.92c0,.09-.21.16-.53.21-.01,0-.02.01-.04,0-1.64.46-3.39.08-4.56-1.17-.08-.08.03-.2.13-.15,1.35.77,2.76.84,4.24.7.04-.27-.99-3.35-.84-3.38.51-.1,1.57.13,2.2.24-.94-4.14-2.54-8.09-3.42-12.22-.03-.15.18-.22.24-.09,1.97,4.02,3.16,8.76,4.25,13.01.14.53-1.89.05-2.28-.07Z"/>
              </g>
              <path class="cls-7" d="M50.17,95.11c3.24-.06,3.33-6.87,3.33-6.87,0,0,6.53-.6,7.79-10.2,0,0,.28,4.39-2.15,8.04,0,0,11.4-2.32,15.33-12.42,0,0-1.47,5.09-3.11,7.01,0,0,4.7-1.81,6.68-5.95,0,0,2.55,5.37,4.25,6.76,0,0-2.4-20.11-20.86-16.18,0,0-11.62,1.89-14.93,11.54-3.32,9.65,3.67,18.27,3.67,18.27Z"/>
              <g>
                <path class="cls-11" d="M53.28,95.47s-4.94-5.71-7.58-3.89c-2.63,1.83,1.53,10.42,4.94,11.3,3.41.88,4.28-2.26,4.28-2.26l-1.64-5.15Z"/>
                <path class="cls-7" d="M46.95,94.02c-.05,0-.06.08,0,.09,2.4.69,3.83,2.7,4.91,4.82-.77-.78-1.75-1.15-2.81-.22-.06.05.01.14.08.12.92-.3,1.62-.21,2.33.48.51.49.88,1.13,1.27,1.71.13.19.49.05.39-.18,0-.02-.02-.03-.02-.05-.25-2.94-2.95-6.81-6.13-6.77Z"/>
              </g>
            </g>
          </g>
        </g>
        <g>
          <path class="cls-34" d="M40.35,210.18c-.11.03-.22.06-.33.08h0c.11-.04.23-.06.34-.08Z"/>
          <g>
            <path class="cls-21" d="M8.69,203.97c-.05.24-.09.47-.12.71,0-.05,0-.09.02-.14.03-.19.06-.38.1-.57Z"/>
            <path class="cls-21" d="M8.69,203.97c-.05.24-.09.47-.12.71,0-.05,0-.09.02-.14.03-.19.06-.38.1-.57Z"/>
            <path class="cls-21" d="M41.85,213.63h0c-.35.09-.69.18-1.03.25.34-.08.69-.17,1.03-.25Z"/>
          </g>
        </g>
        <path class="cls-37" d="M8.69,203.97c-.05.24-.09.47-.12.71,0-.05,0-.09.02-.14.03-.19.06-.38.1-.57Z"/>
      </g>
      <line class="cls-26" x1="124.95" y1="195.42" x2="153.24" y2="205.38"/>
    </g>
  </g>
</svg>